<?xml version="1.0" encoding="UTF-8"?>
<svg xmlns="http://www.w3.org/2000/svg" xmlns:xlink="http://www.w3.org/1999/xlink" width="2000px" height="2000px" viewBox="0 0 2000 2000" version="1.1">
<g id="surface1">
<path style=" stroke:none;fill-rule:nonzero;fill:rgb(0%,0%,0%);fill-opacity:1;" d="M 458 742.667969 C 455.332031 749.332031 457.332031 754.667969 462 756 C 466 757.332031 483.332031 762 500 766.667969 C 587.332031 790.667969 669.332031 881.332031 678.667969 964.667969 C 684 1014.667969 696 1007.332031 691.332031 957.332031 C 683.332031 872.667969 636 800.667969 560.667969 760.667969 C 512 735.332031 464 726.667969 458 742.667969 Z M 458 742.667969 "/>
<path style=" stroke:none;fill-rule:nonzero;fill:rgb(0%,0%,0%);fill-opacity:1;" d="M 310 778.667969 C 262 799.332031 243.332031 812 215.332031 842 C 152 910 133.332031 993.332031 160 1087.332031 C 166 1108 170 1112 184 1110.667969 C 197.332031 1110 200 1107.332031 196.667969 1096.667969 C 194.667969 1089.332031 190 1064 186 1040 C 169.332031 940 226.667969 833.332031 323.332031 784 C 360.667969 764.667969 351.332031 761.332031 310 778.667969 Z M 310 778.667969 "/>
<path style=" stroke:none;fill-rule:nonzero;fill:rgb(0%,0%,0%);fill-opacity:1;" d="M 780 960 C 780 974 790 978 796.667969 966.667969 C 799.332031 962.667969 804 961.332031 807.332031 963.332031 C 815.332031 968.667969 815.332031 1033.332031 806.667969 1033.332031 C 803.332031 1033.332031 800 1036 800 1040 C 800 1043.332031 809.332031 1046.667969 820 1046.667969 C 831.332031 1046.667969 840 1043.332031 840 1040 C 840 1036 837.332031 1033.332031 833.332031 1033.332031 C 824.667969 1033.332031 824.667969 968.667969 832.667969 963.332031 C 836 961.332031 840.667969 962.667969 843.332031 966.667969 C 850 978 860 974 860 960 C 860 948 855.332031 946.667969 820 946.667969 C 784.667969 946.667969 780 948 780 960 Z M 780 960 "/>
<path style=" stroke:none;fill-rule:nonzero;fill:rgb(0%,0%,0%);fill-opacity:1;" d="M 870 996.667969 L 870 1046.667969 L 890 1046.667969 C 904.667969 1046.667969 907.332031 1044.667969 901.332031 1038.667969 C 890 1027.332031 891.332031 1006.667969 903.332031 1006.667969 C 917.332031 1006.667969 928 1029.332031 918.667969 1038.667969 C 912.667969 1044.667969 916 1046.667969 932 1046.667969 C 944 1046.667969 953.332031 1043.332031 953.332031 1040 C 953.332031 1036 950.667969 1033.332031 948 1033.332031 C 938.667969 1033.332031 926 1001.332031 933.332031 996.667969 C 942.667969 990.667969 941.332031 964 932 954.667969 C 927.332031 950 912 946.667969 897.332031 946.667969 L 870 946.667969 Z M 919.332031 966 C 932 974 923.332031 993.332031 906.667969 993.332031 C 896.667969 993.332031 893.332031 988.667969 893.332031 976.667969 C 893.332031 959.332031 902.667969 956 919.332031 966 Z M 919.332031 966 "/>
<path style=" stroke:none;fill-rule:nonzero;fill:rgb(0%,0%,0%);fill-opacity:1;" d="M 963.332031 996.667969 L 963.332031 1046.667969 L 995.332031 1046.667969 C 1022 1046.667969 1026.667969 1044.667969 1026.667969 1033.332031 C 1026.667969 1026 1024 1020 1020 1020 C 1016.667969 1020 1013.332031 1022.667969 1013.332031 1026.667969 C 1013.332031 1030 1007.332031 1033.332031 1000 1033.332031 C 991.332031 1033.332031 986.667969 1028.667969 986.667969 1020 C 986.667969 1010 991.332031 1006.667969 1003.332031 1006.667969 C 1014 1006.667969 1020 1002.667969 1020 996.667969 C 1020 990.667969 1014 986.667969 1003.332031 986.667969 C 991.332031 986.667969 986.667969 983.332031 986.667969 973.332031 C 986.667969 959.332031 1002.667969 954.667969 1010 966.667969 C 1016.667969 978 1026.667969 974 1026.667969 960 C 1026.667969 948.667969 1022 946.667969 995.332031 946.667969 L 963.332031 946.667969 Z M 963.332031 996.667969 "/>
<path style=" stroke:none;fill-rule:nonzero;fill:rgb(0%,0%,0%);fill-opacity:1;" d="M 1050.667969 957.332031 C 1034.667969 972.667969 1040 988.667969 1064.667969 1000 C 1089.332031 1011.332031 1094.667969 1033.332031 1073.332031 1033.332031 C 1066 1033.332031 1060 1030 1060 1026.667969 C 1060 1022.667969 1055.332031 1020 1049.332031 1020 C 1028 1020 1042.667969 1043.332031 1065.332031 1045.332031 C 1092 1048 1106.667969 1037.332031 1106.667969 1015.332031 C 1106.667969 1003.332031 1100.667969 996.667969 1083.332031 989.332031 C 1070.667969 984 1060 976.667969 1060 973.332031 C 1060 962.667969 1082 956 1085.332031 965.332031 C 1089.332031 978 1108 974.667969 1105.332031 961.332031 C 1102.667969 945.332031 1065.332031 942.667969 1050.667969 957.332031 Z M 1050.667969 957.332031 "/>
<path style=" stroke:none;fill-rule:nonzero;fill:rgb(0%,0%,0%);fill-opacity:1;" d="M 1133.332031 960 C 1103.332031 990 1123.332031 1046.667969 1163.332031 1046.667969 C 1190.667969 1046.667969 1206.667969 1027.332031 1206.667969 995.332031 C 1206.667969 968.667969 1186.667969 946.667969 1163.332031 946.667969 C 1154 946.667969 1140.667969 952.667969 1133.332031 960 Z M 1179.332031 969.332031 C 1190.667969 982.667969 1186 1020.667969 1172 1028.667969 C 1156 1039.332031 1140 1023.332031 1140 997.332031 C 1140 964.667969 1162.667969 948.667969 1179.332031 969.332031 Z M 1179.332031 969.332031 "/>
<path style=" stroke:none;fill-rule:nonzero;fill:rgb(0%,0%,0%);fill-opacity:1;" d="M 1225.332031 986.667969 C 1227.332031 1012.667969 1225.332031 1030 1220 1036.667969 C 1212.667969 1045.332031 1214.667969 1046.667969 1232.667969 1046.667969 C 1252 1046.667969 1252.667969 1045.332031 1249.332031 1026.667969 C 1246.667969 1015.332031 1248 1006.667969 1252 1006.667969 C 1263.332031 1006.667969 1274 1024.667969 1269.332031 1036 C 1266 1044 1269.332031 1046.667969 1282.667969 1046.667969 C 1303.332031 1046.667969 1302.667969 1048 1289.332031 1020.667969 C 1281.332031 1004.667969 1280.667969 996.667969 1286 991.332031 C 1307.332031 970 1285.332031 946.667969 1245.332031 946.667969 L 1222.667969 946.667969 Z M 1270 976.667969 C 1270 984 1264.667969 990.667969 1258.667969 992 C 1249.332031 994 1246.667969 990 1246.667969 976.667969 C 1246.667969 963.332031 1249.332031 959.332031 1258.667969 961.332031 C 1264.667969 962.667969 1270 969.332031 1270 976.667969 Z M 1270 976.667969 "/>
<path style=" stroke:none;fill-rule:nonzero;fill:rgb(0%,0%,0%);fill-opacity:1;" d="M 1343.332031 996.667969 L 1343.332031 1046.667969 L 1362 1046.667969 C 1372 1046.667969 1380 1043.332031 1380 1040 C 1380 1036 1377.332031 1033.332031 1373.332031 1033.332031 C 1370 1033.332031 1366.667969 1028.667969 1366.667969 1023.332031 C 1366.667969 1018 1372.667969 1013.332031 1380 1013.332031 C 1394 1013.332031 1420 991.332031 1420 980 C 1420 964.667969 1392.667969 946.667969 1368.667969 946.667969 L 1343.332031 946.667969 Z M 1393.332031 970 C 1400 978 1400 982 1393.332031 990 C 1379.332031 1006.667969 1366.667969 1002 1366.667969 980 C 1366.667969 958 1379.332031 953.332031 1393.332031 970 Z M 1393.332031 970 "/>
<path style=" stroke:none;fill-rule:nonzero;fill:rgb(0%,0%,0%);fill-opacity:1;" d="M 1432 988 C 1435.332031 1037.332031 1441.332031 1046.667969 1469.332031 1046.667969 C 1499.332031 1046.667969 1506.667969 1036 1506.667969 995.332031 C 1506.667969 974.667969 1509.332031 960 1514 960 C 1517.332031 960 1518.667969 956.667969 1516.667969 953.332031 C 1511.332031 944.667969 1480 944.667969 1480 952.667969 C 1480 956.667969 1483.332031 961.332031 1486.667969 963.332031 C 1497.332031 970 1494.667969 1017.332031 1483.332031 1026.667969 C 1478 1031.332031 1468.667969 1032.667969 1462.667969 1030.667969 C 1454 1027.332031 1452 1019.332031 1454.667969 986.667969 C 1457.332031 949.332031 1456.667969 946.667969 1443.332031 946.667969 C 1430 946.667969 1429.332031 949.332031 1432 988 Z M 1432 988 "/>
<path style=" stroke:none;fill-rule:nonzero;fill:rgb(0%,0%,0%);fill-opacity:1;" d="M 1530 996.667969 L 1530 1046.667969 L 1558 1046.667969 C 1590.667969 1046.667969 1610.667969 1026.667969 1599.332031 1006 C 1596 999.332031 1594.667969 986 1597.332031 977.332031 C 1602 958 1586 946.667969 1552 946.667969 L 1530 946.667969 Z M 1578.667969 975.332031 C 1580 983.332031 1576.667969 986.667969 1567.332031 986.667969 C 1557.332031 986.667969 1553.332031 982.667969 1553.332031 972.667969 C 1553.332031 956 1575.332031 958 1578.667969 975.332031 Z M 1580 1010 C 1590 1022 1583.332031 1033.332031 1566 1033.332031 C 1556.667969 1033.332031 1553.332031 1028.667969 1553.332031 1016.667969 C 1553.332031 998 1567.332031 994.667969 1580 1010 Z M 1580 1010 "/>
<path style=" stroke:none;fill-rule:nonzero;fill:rgb(0%,0%,0%);fill-opacity:1;" d="M 1616.667969 996.667969 L 1616.667969 1046.667969 L 1652 1046.667969 C 1682 1046.667969 1686.667969 1044.667969 1686.667969 1033.332031 C 1686.667969 1026 1682 1020 1676.667969 1020 C 1671.332031 1020 1666.667969 1022.667969 1666.667969 1026.667969 C 1666.667969 1030 1660 1033.332031 1652.667969 1033.332031 C 1639.332031 1033.332031 1638.667969 1030.667969 1641.332031 990 C 1644 950 1642.667969 946.667969 1630 946.667969 C 1618 946.667969 1616.667969 950.667969 1616.667969 996.667969 Z M 1616.667969 996.667969 "/>
<path style=" stroke:none;fill-rule:nonzero;fill:rgb(0%,0%,0%);fill-opacity:1;" d="M 1696.667969 996.667969 C 1696.667969 1042 1698 1046.667969 1710 1046.667969 C 1722 1046.667969 1723.332031 1042 1723.332031 996.667969 C 1723.332031 951.332031 1722 946.667969 1710 946.667969 C 1698 946.667969 1696.667969 951.332031 1696.667969 996.667969 Z M 1696.667969 996.667969 "/>
<path style=" stroke:none;fill-rule:nonzero;fill:rgb(0%,0%,0%);fill-opacity:1;" d="M 1754 959.332031 C 1737.332031 976 1735.332031 1010.667969 1750.667969 1032 C 1758 1042.667969 1767.332031 1046.667969 1787.332031 1046.667969 C 1810.667969 1046.667969 1813.332031 1044.667969 1813.332031 1030 C 1813.332031 1020.667969 1810.667969 1013.332031 1806.667969 1013.332031 C 1803.332031 1013.332031 1800 1018 1800 1023.332031 C 1800 1036 1777.332031 1036.667969 1767.332031 1024 C 1756 1010 1761.332031 972.667969 1775.332031 964 C 1784.667969 958 1789.332031 959.332031 1796 968 C 1808 984.667969 1814.667969 982.667969 1812 964.667969 C 1809.332031 944 1772.667969 940.667969 1754 959.332031 Z M 1754 959.332031 "/>
</g>
</svg>
