<?xml version="1.0" standalone="no"?>
<!DOCTYPE svg PUBLIC "-//W3C//DTD SVG 20010904//EN"
 "http://www.w3.org/TR/2001/REC-SVG-20010904/DTD/svg10.dtd">
<svg version="1.0" xmlns="http://www.w3.org/2000/svg"
 width="300.000000pt" height="300.000000pt" viewBox="0 0 300.000000 300.000000"
 preserveAspectRatio="xMidYMid meet">

<g transform="translate(0.000000,300.000000) scale(0.100000,-0.100000)"
fill="#000000" stroke="none">
<path d="M687 1886 c-4 -10 -1 -18 6 -20 6 -2 32 -9 57 -16 131 -36 254 -172
268 -297 8 -75 26 -64 19 11 -12 127 -83 235 -196 295 -73 38 -145 51 -154 27z"/>
<path d="M465 1832 c-72 -31 -100 -50 -142 -95 -95 -102 -123 -227 -83 -368 9
-31 15 -37 36 -35 20 1 24 5 19 21 -3 11 -10 49 -16 85 -25 150 61 310 206
384 56 29 42 34 -20 8z"/>
<path d="M1170 1560 c0 -21 15 -27 25 -10 4 6 11 8 16 5 12 -8 12 -105 -1
-105 -5 0 -10 -4 -10 -10 0 -5 14 -10 30 -10 17 0 30 5 30 10 0 6 -4 10 -10
10 -13 0 -13 97 -1 105 5 3 12 1 16 -5 10 -17 25 -11 25 10 0 18 -7 20 -60 20
-53 0 -60 -2 -60 -20z"/>
<path d="M1305 1505 l0 -75 30 0 c22 0 26 3 17 12 -17 17 -15 48 3 48 21 0 37
-34 23 -48 -9 -9 -4 -12 20 -12 18 0 32 5 32 10 0 6 -4 10 -8 10 -14 0 -33 48
-22 55 14 9 12 49 -2 63 -7 7 -30 12 -52 12 l-41 0 0 -75z m74 46 c19 -12 6
-41 -19 -41 -15 0 -20 7 -20 25 0 26 14 31 39 16z"/>
<path d="M1445 1505 l0 -75 48 0 c40 0 47 3 47 20 0 11 -4 20 -10 20 -5 0 -10
-4 -10 -10 0 -5 -9 -10 -20 -10 -13 0 -20 7 -20 20 0 15 7 20 25 20 16 0 25 6
25 15 0 9 -9 15 -25 15 -18 0 -25 5 -25 20 0 21 24 28 35 10 10 -17 25 -11 25
10 0 17 -7 20 -47 20 l-48 0 0 -75z"/>
<path d="M1576 1564 c-24 -23 -16 -47 21 -64 37 -17 45 -50 13 -50 -11 0 -20
5 -20 10 0 6 -7 10 -16 10 -32 0 -10 -35 24 -38 40 -4 62 12 62 45 0 18 -9 28
-35 39 -19 8 -35 19 -35 24 0 16 33 26 38 12 6 -19 34 -14 30 6 -4 24 -60 28
-82 6z"/>
<path d="M1700 1560 c-45 -45 -15 -130 45 -130 41 0 65 29 65 77 0 40 -30 73
-65 73 -14 0 -34 -9 -45 -20z m69 -14 c17 -20 10 -77 -11 -89 -24 -16 -48 8
-48 47 0 49 34 73 59 42z"/>
<path d="M1838 1520 c3 -39 0 -65 -8 -75 -11 -13 -8 -15 19 -15 29 0 30 2 25
30 -4 17 -2 30 4 30 17 0 33 -27 26 -44 -5 -12 0 -16 20 -16 31 0 30 -2 10 39
-12 24 -13 36 -5 44 32 32 -1 67 -61 67 l-34 0 4 -60z m67 15 c0 -11 -8 -21
-17 -23 -14 -3 -18 3 -18 23 0 20 4 26 18 23 9 -2 17 -12 17 -23z"/>
<path d="M2015 1505 l0 -75 28 0 c15 0 27 5 27 10 0 6 -4 10 -10 10 -5 0 -10
7 -10 15 0 8 9 15 20 15 21 0 60 33 60 50 0 23 -41 50 -77 50 l-38 0 0 -75z
m75 40 c10 -12 10 -18 0 -30 -21 -25 -40 -18 -40 15 0 33 19 40 40 15z"/>
<path d="M2148 1518 c5 -74 14 -88 56 -88 45 0 56 16 56 77 0 31 4 53 11 53 5
0 7 5 4 10 -8 13 -55 13 -55 1 0 -6 5 -13 10 -16 16 -10 12 -81 -5 -95 -8 -7
-22 -9 -31 -6 -13 5 -16 17 -12 66 4 56 3 60 -17 60 -20 0 -21 -4 -17 -62z"/>
<path d="M2295 1505 l0 -75 42 0 c49 0 79 30 62 61 -5 10 -7 30 -3 43 7 29
-17 46 -68 46 l-33 0 0 -75z m73 32 c2 -12 -3 -17 -17 -17 -15 0 -21 6 -21 21
0 25 33 22 38 -4z m2 -52 c15 -18 5 -35 -21 -35 -14 0 -19 7 -19 25 0 28 21
33 40 10z"/>
<path d="M2425 1505 l0 -75 53 0 c45 0 52 3 52 20 0 11 -7 20 -15 20 -8 0 -15
-4 -15 -10 0 -5 -10 -10 -21 -10 -20 0 -21 4 -17 65 4 60 2 65 -17 65 -18 0
-20 -6 -20 -75z"/>
<path d="M2545 1505 c0 -68 2 -75 20 -75 18 0 20 7 20 75 0 68 -2 75 -20 75
-18 0 -20 -7 -20 -75z"/>
<path d="M2631 1561 c-25 -25 -28 -77 -5 -109 11 -16 25 -22 55 -22 35 0 39 3
39 25 0 14 -4 25 -10 25 -5 0 -10 -7 -10 -15 0 -19 -34 -20 -49 -1 -17 21 -9
77 12 90 14 9 21 7 31 -6 18 -25 28 -22 24 5 -4 31 -59 36 -87 8z"/>
</g>
</svg>
