<?xml version="1.0" standalone="no"?>
<!DOCTYPE svg PUBLIC "-//W3C//DTD SVG 20010904//EN"
 "http://www.w3.org/TR/2001/REC-SVG-20010904/DTD/svg10.dtd">
<svg version="1.0" xmlns="http://www.w3.org/2000/svg"
 width="966.000000pt" height="258.000000pt" viewBox="0 0 966.000000 258.000000"
 preserveAspectRatio="xMidYMid meet">

<g transform="translate(0.000000,258.000000) scale(0.100000,-0.100000)"
fill="#000000" stroke="none">
<path d="M1456 2475 c-4 -19 -21 -50 -39 -68 l-32 -34 75 -11 c90 -13 247 -62
348 -108 213 -97 407 -288 516 -509 56 -111 81 -188 101 -300 28 -163 14 -354
-39 -515 -13 -41 -23 -76 -21 -78 5 -5 62 139 89 226 91 290 71 565 -59 822
-122 239 -358 446 -620 544 -88 32 -228 66 -276 66 -34 0 -37 -3 -43 -35z"/>
<path d="M1080 2355 c-298 -41 -527 -151 -712 -343 -288 -299 -381 -750 -237
-1147 30 -81 31 -84 55 -74 34 12 101 11 126 -2 19 -10 20 -9 13 7 -66 160
-90 287 -90 479 1 143 4 171 28 259 95 342 337 621 649 745 85 34 211 68 297
80 55 8 55 9 11 9 -25 0 -88 -6 -140 -13z"/>
<path d="M4032 1775 c-38 -78 -39 -85 -8 -85 18 0 37 17 75 69 28 38 51 71 51
75 0 3 -19 6 -43 6 -43 0 -43 0 -75 -65z m31 8 c-22 -55 -34 -75 -39 -70 -6 5
43 107 51 107 2 0 -3 -17 -12 -37z"/>
<path d="M1275 1780 c-4 -6 5 -10 19 -10 14 0 26 5 26 10 0 6 -9 10 -19 10
-11 0 -23 -4 -26 -10z"/>
<path d="M1340 1780 c0 -5 12 -10 26 -10 14 0 23 4 19 10 -3 6 -15 10 -26 10
-10 0 -19 -4 -19 -10z"/>
<path d="M1235 1740 c-4 -6 12 -10 39 -10 25 0 46 5 46 10 0 6 -18 10 -39 10
-22 0 -43 -4 -46 -10z"/>
<path d="M1340 1740 c0 -5 21 -10 46 -10 27 0 43 4 39 10 -3 6 -24 10 -46 10
-21 0 -39 -4 -39 -10z"/>
<path d="M1203 1698 c-5 -10 -1 -11 65 -12 28 -1 52 1 52 5 0 10 -111 16 -117
7z"/>
<path d="M1393 1702 c-29 -2 -53 -7 -53 -11 0 -11 107 -13 114 -2 9 14 -3 16
-61 13z"/>
<path d="M1180 1650 c0 -6 30 -10 70 -10 40 0 70 4 70 10 0 6 -30 10 -70 10
-40 0 -70 -4 -70 -10z"/>
<path d="M1340 1650 c0 -6 30 -10 70 -10 40 0 70 4 70 10 0 6 -30 10 -70 10
-40 0 -70 -4 -70 -10z"/>
<path d="M1000 1620 c12 -8 12 -10 1 -10 -11 0 -11 -3 -1 -15 10 -12 10 -15
-1 -15 -9 0 -10 -3 -4 -8 6 -4 12 -18 13 -31 3 -18 0 -22 -11 -18 -15 6 -33
-20 -22 -31 3 -3 5 0 5 6 0 7 10 12 21 12 19 0 20 -2 9 -17 -7 -10 -1 -5 14
10 16 17 26 40 26 58 0 30 -30 69 -52 69 -9 0 -8 -4 2 -10z m34 -26 c5 -14 4
-15 -9 -4 -17 14 -19 20 -6 20 5 0 12 -7 15 -16z m-4 -56 c0 -39 -6 -34 -13
10 -3 18 -1 30 4 26 5 -3 9 -19 9 -36z"/>
<path d="M935 1610 c-3 -5 -2 -10 4 -10 5 0 13 5 16 10 3 6 2 10 -4 10 -5 0
-13 -4 -16 -10z"/>
<path d="M1160 1610 c0 -6 33 -10 80 -10 47 0 80 4 80 10 0 6 -33 10 -80 10
-47 0 -80 -4 -80 -10z"/>
<path d="M1340 1610 c0 -6 34 -10 81 -10 51 0 78 4 74 10 -3 6 -40 10 -81 10
-43 0 -74 -4 -74 -10z"/>
<path d="M4464 1605 c-131 -49 -161 -216 -50 -284 19 -12 80 -30 136 -41 136
-26 164 -43 168 -99 2 -24 -2 -49 -7 -54 -14 -14 -14 -30 -1 -22 5 3 15 25 21
48 6 23 14 36 16 30 8 -22 -18 -83 -39 -94 -15 -8 -19 -8 -14 0 9 15 4 14 -30
-4 -62 -32 -217 -12 -286 36 -14 11 -29 19 -33 19 -3 0 -5 -21 -3 -47 3 -47 4
-48 53 -66 63 -23 197 -33 251 -18 94 25 154 93 154 173 0 99 -44 134 -210
167 -113 23 -146 39 -160 77 -22 57 27 118 104 129 55 9 142 -9 201 -41 l46
-24 -3 47 c-3 44 -5 47 -43 61 -59 21 -220 25 -271 7z m-66 -75 c-12 -17 -25
-52 -29 -78 l-6 -47 -2 47 c-1 37 4 53 25 77 33 40 41 40 12 1z m-41 -447 c-3
-10 -5 -4 -5 12 0 17 2 24 5 18 2 -7 2 -21 0 -30z"/>
<path d="M5090 1611 c-78 -24 -117 -60 -156 -146 -24 -52 -28 -72 -28 -156 0
-89 3 -102 32 -162 54 -109 136 -153 268 -145 59 4 83 11 121 34 94 58 140
167 131 309 -11 173 -114 276 -273 274 -38 0 -81 -4 -95 -8z m198 -84 c63 -41
87 -101 87 -217 0 -85 -3 -102 -27 -148 -15 -29 -23 -50 -18 -47 28 17 53 94
60 185 l8 95 -2 -100 c-1 -90 -4 -106 -30 -149 -18 -31 -33 -46 -42 -42 -8 3
-31 -5 -51 -17 -69 -40 -176 -24 -229 35 -47 51 -59 88 -58 188 0 78 3 102 21
135 27 50 71 93 109 105 51 16 129 6 172 -23z m-296 -4 c-45 -64 -56 -98 -62
-198 l-7 -100 -1 90 c-1 99 11 146 52 200 32 41 46 47 18 8z"/>
<path d="M9105 1603 c-67 -23 -126 -84 -155 -159 -18 -50 -21 -74 -18 -154 3
-82 8 -102 33 -150 17 -30 49 -69 72 -86 78 -59 225 -69 333 -23 49 21 50 22
50 65 l0 43 -49 -31 c-54 -33 -144 -47 -215 -34 -46 9 -104 59 -127 111 -26
56 -26 194 0 250 56 124 203 159 335 80 l56 -34 0 45 c0 44 -1 46 -47 66 -65
29 -199 35 -268 11z m-128 -150 c-18 -40 -22 -66 -22 -150 0 -56 -3 -95 -7
-85 -22 56 -1 227 33 269 20 23 19 14 -4 -34z"/>
<path d="M1720 1591 c0 -16 4 -22 15 -17 10 3 17 -3 21 -20 4 -14 4 -28 0 -31
-3 -4 -6 1 -6 10 0 9 -4 18 -9 21 -5 4 -7 -3 -4 -13 3 -11 -1 -21 -9 -24 -7
-2 -5 -3 5 -1 10 1 16 -3 14 -9 -2 -7 -13 -12 -25 -11 -12 0 -19 -3 -16 -8 9
-15 33 -8 48 14 22 31 20 52 -9 85 l-24 28 -1 -24z"/>
<path d="M2672 1578 l3 -32 103 0 102 1 0 -269 0 -268 40 0 40 0 0 264 0 264
30 7 c16 4 53 6 82 5 107 -3 108 -3 108 30 l0 30 -256 0 -255 0 3 -32z m235
-411 c-1 -67 -3 -9 -3 128 0 138 2 192 3 122 2 -71 2 -183 0 -250z"/>
<path d="M3260 1311 l0 -301 40 0 40 0 0 120 0 120 59 0 58 0 99 -120 99 -119
48 -1 c26 0 47 2 47 4 0 2 -49 61 -110 132 l-110 128 37 20 c57 33 76 67 81
141 4 52 0 70 -17 98 -36 58 -77 71 -233 75 l-138 4 0 -301z m29 97 c0 -101
-2 -178 -4 -173 -8 23 -11 355 -4 355 5 0 9 -82 8 -182z m228 123 c32 -15 44
-27 51 -53 29 -105 -37 -168 -175 -168 l-53 0 0 120 0 120 68 0 c44 0 81 -7
109 -19z m79 -126 c-7 -36 -41 -85 -58 -85 -7 0 -2 10 10 23 24 26 42 68 43
105 1 19 3 21 6 9 3 -11 2 -34 -1 -52z"/>
<path d="M3840 1310 l0 -300 200 0 200 0 0 35 0 35 -160 0 -160 0 0 115 0 115
160 0 160 0 0 30 0 30 -160 0 -160 0 0 84 0 84 31 6 c17 3 89 6 160 6 l129 0
0 30 0 30 -200 0 -200 0 0 -300z m29 53 c-1 -149 -4 -214 -10 -188 -12 59 -11
415 1 415 6 0 10 -82 9 -227z"/>
<path d="M5590 1311 l0 -301 40 0 40 0 0 120 0 120 58 0 59 0 99 -119 99 -120
48 0 c26 -1 47 1 47 3 0 2 -47 59 -105 127 -58 67 -104 126 -103 130 2 4 19
18 38 31 46 31 70 80 70 147 0 66 -26 112 -78 137 -29 15 -65 20 -174 22
l-138 4 0 -301z m30 3 c0 -181 -3 -273 -10 -269 -6 4 -10 107 -10 276 0 173 4
269 10 269 6 0 10 -99 10 -276z m242 212 c34 -22 49 -72 38 -123 -15 -63 -72
-93 -177 -93 l-53 0 0 121 0 122 83 -5 c56 -3 91 -10 109 -22z m64 -109 c-4
-24 -14 -53 -22 -63 -15 -18 -15 -18 -9 1 16 46 25 99 20 114 -5 12 -3 13 6 4
7 -7 9 -27 5 -56z"/>
<path d="M6460 1311 l0 -301 40 0 40 0 0 115 0 115 73 0 c93 0 141 14 184 53
60 56 75 172 29 241 -34 53 -88 70 -233 74 l-133 4 0 -301z m30 2 c0 -152 -2
-274 -5 -272 -10 10 -15 549 -5 549 6 0 10 -97 10 -277z m235 213 c60 -40 67
-132 14 -185 -31 -31 -65 -41 -145 -41 l-54 0 0 126 0 127 79 -5 c52 -3 88
-11 106 -22z m59 -161 c-21 -46 -29 -39 -9 8 8 20 16 49 17 64 1 26 2 26 5 -4
2 -18 -3 -48 -13 -68z"/>
<path d="M6960 1394 c0 -244 6 -279 60 -335 77 -80 249 -81 333 -1 55 52 60
77 65 325 l4 227 -41 0 -41 0 0 -217 c0 -188 -2 -223 -18 -252 -26 -53 -63
-75 -125 -75 -69 -1 -112 18 -139 63 -22 34 -23 48 -26 259 l-4 222 -34 0 -34
0 0 -216z m22 -66 c2 -98 0 -170 -4 -160 -4 9 -6 109 -5 222 1 231 5 203 9
-62z m383 55 c-6 -210 -14 -261 -41 -284 -10 -8 -9 1 6 32 17 39 20 66 20 252
0 145 3 207 11 207 8 0 9 -58 4 -207z"/>
<path d="M7580 1309 l0 -301 153 4 c133 3 157 6 193 25 89 47 123 131 89 219
-13 35 -27 50 -65 72 l-48 28 33 31 c72 69 44 179 -54 212 -19 6 -94 11 -167
11 l-134 0 0 -301z m17 -141 c-1 -79 -3 -15 -3 142 0 157 2 221 3 143 2 -79 2
-207 0 -285z m279 349 c13 -16 24 -38 25 -50 1 -21 2 -20 9 3 8 24 8 24 9 -5
0 -16 -6 -41 -14 -55 l-15 -25 6 30 6 30 -14 -25 c-21 -38 -55 -50 -150 -50
l-88 0 0 91 0 91 101 -4 c96 -4 103 -5 125 -31z m31 -237 c60 -36 56 -135 -6
-177 -30 -20 -46 -23 -142 -23 l-109 0 0 110 0 110 113 0 c93 0 117 -3 144
-20z m48 -147 c-9 -15 -13 -19 -9 -8 3 11 9 43 13 70 l6 50 3 -42 c2 -26 -3
-53 -13 -70z"/>
<path d="M8150 1310 l0 -300 190 0 190 0 0 35 0 35 -155 0 -155 0 0 265 0 265
-35 0 -35 0 0 -300z m17 -142 c-1 -79 -3 -15 -3 142 0 157 2 221 3 143 2 -79
2 -207 0 -285z"/>
<path d="M8582 1583 c3 -24 8 -28 41 -31 l37 -3 0 -240 0 -239 -40 0 c-41 0
-47 -9 -34 -44 5 -13 25 -16 120 -16 l114 0 0 30 c0 28 -2 30 -40 30 l-40 0 0
240 0 240 40 0 c38 0 40 2 40 30 l0 30 -121 0 -120 0 3 -27z m108 -272 c0
-132 -3 -242 -7 -244 -5 -3 -8 105 -8 239 0 134 3 244 8 244 4 0 7 -108 7
-239z m-80 -271 c0 -5 -2 -10 -4 -10 -3 0 -8 5 -11 10 -3 6 -1 10 4 10 6 0 11
-4 11 -10z"/>
<path d="M1150 1569 c0 -5 38 -9 85 -9 111 0 111 14 0 17 -47 1 -85 -3 -85 -8z"/>
<path d="M1340 1569 c0 -5 38 -9 85 -9 47 0 85 4 85 9 0 5 -38 9 -85 9 -47 0
-85 -4 -85 -9z"/>
<path d="M1695 1550 c-3 -5 -1 -10 4 -10 6 0 11 5 11 10 0 6 -2 10 -4 10 -3 0
-8 -4 -11 -10z"/>
<path d="M1140 1520 c0 -5 25 -9 55 -9 30 1 55 5 55 10 0 5 -25 9 -55 9 -30 0
-55 -4 -55 -10z"/>
<path d="M1410 1520 c0 -5 25 -10 55 -10 30 0 55 5 55 10 0 6 -25 10 -55 10
-30 0 -55 -4 -55 -10z"/>
<path d="M1140 1480 c0 -6 37 -10 90 -10 53 0 90 4 90 10 0 6 -37 10 -90 10
-53 0 -90 -4 -90 -10z"/>
<path d="M1340 1480 c0 -6 37 -10 90 -10 53 0 90 4 90 10 0 6 -37 10 -90 10
-53 0 -90 -4 -90 -10z"/>
<path d="M1140 1440 c0 -6 37 -10 90 -10 53 0 90 4 90 10 0 6 -37 10 -90 10
-53 0 -90 -4 -90 -10z"/>
<path d="M1340 1440 c0 -6 37 -10 90 -10 53 0 90 4 90 10 0 6 -37 10 -90 10
-53 0 -90 -4 -90 -10z"/>
<path d="M780 1355 c-19 -14 -30 -25 -24 -25 5 0 25 11 44 25 44 32 26 32 -20
0z"/>
<path d="M1823 1331 c1 -13 13 -31 27 -39 l25 -16 -21 24 c-12 14 -24 32 -27
40 -4 9 -6 5 -4 -9z"/>
<path d="M822 1309 c-18 -16 -29 -29 -25 -29 13 0 69 48 63 53 -3 3 -20 -8
-38 -24z"/>
<path d="M865 1290 c-3 -5 -1 -10 4 -10 6 0 11 5 11 10 0 6 -2 10 -4 10 -3 0
-8 -4 -11 -10z"/>
<path d="M1812 1271 c18 -16 35 -27 38 -24 6 5 -50 53 -63 53 -4 0 7 -13 25
-29z"/>
<path d="M830 1265 c0 -14 2 -25 4 -25 2 0 6 11 8 25 3 14 1 25 -3 25 -5 0 -9
-11 -9 -25z"/>
<path d="M887 1242 c-15 -15 -27 -32 -27 -37 0 -5 8 0 18 11 49 55 56 75 9 26z"/>
<path d="M1730 1244 c0 -6 15 -23 32 -40 l33 -29 -25 30 c-14 17 -28 34 -32
40 -5 5 -8 5 -8 -1z"/>
<path d="M965 1209 c-4 -5 -4 -22 0 -36 4 -17 1 -29 -7 -35 -10 -7 -10 -9 2
-5 10 2 15 17 15 45 0 45 -1 47 -10 31z"/>
<path d="M1706 1195 c4 -8 8 -15 10 -15 2 0 4 7 4 15 0 8 -4 15 -10 15 -5 0
-7 -7 -4 -15z"/>
<path d="M1660 1196 c0 -4 11 -24 25 -44 14 -20 25 -32 25 -26 0 5 -11 25 -25
44 -14 19 -25 31 -25 26z"/>
<path d="M1736 1167 c3 -10 9 -15 12 -12 3 3 0 11 -7 18 -10 9 -11 8 -5 -6z"/>
<path d="M1012 1158 c-7 -7 -12 -23 -11 -37 1 -25 1 -25 9 3 5 16 15 33 22 37
7 5 8 9 3 9 -6 0 -16 -5 -23 -12z"/>
<path d="M1580 1147 c0 -17 31 -67 43 -67 8 0 9 3 1 8 -6 4 -18 21 -27 37 -9
17 -16 26 -17 22z"/>
<path d="M1101 1099 c-7 -22 -11 -43 -8 -45 2 -2 9 14 16 37 7 22 11 43 8 45
-2 2 -9 -14 -16 -37z"/>
<path d="M1056 1104 c-18 -26 -18 -26 3 -15 11 7 21 18 21 26 0 20 -2 19 -24
-11z"/>
<path d="M1144 1109 c0 -10 4 -19 8 -19 4 0 8 6 8 14 0 8 -4 17 -8 20 -4 2 -8
-4 -8 -15z"/>
<path d="M1546 1123 c6 -4 14 -15 17 -23 5 -11 6 -9 4 4 -1 11 -9 21 -17 23
-10 3 -11 2 -4 -4z"/>
<path d="M1510 1119 c0 -14 31 -81 36 -76 3 3 -4 22 -15 44 -11 21 -20 35 -21
32z"/>
<path d="M1121 1085 c1 -19 18 -51 18 -35 0 8 -4 22 -9 30 -5 8 -9 11 -9 5z"/>
</g>
</svg>
