<?xml version="1.0" standalone="no"?>
<!DOCTYPE svg PUBLIC "-//W3C//DTD SVG 20010904//EN"
 "http://www.w3.org/TR/2001/REC-SVG-20010904/DTD/svg10.dtd">
<svg version="1.0" xmlns="http://www.w3.org/2000/svg"
 width="7656.000000pt" height="2048.000000pt" viewBox="0 0 7656.000000 2048.000000"
 preserveAspectRatio="xMidYMid meet">

<g transform="translate(0.000000,2048.000000) scale(0.100000,-0.100000)"
fill="#000000" stroke="none">
<path d="M11569 19987 c-3 -9 -7 -41 -13 -98 -22 -225 -122 -489 -251 -667
-105 -144 -266 -291 -415 -378 l-52 -31 103 -6 c124 -8 466 -50 587 -72 325
-60 572 -111 727 -151 299 -76 521 -136 630 -170 330 -102 550 -177 710 -239
33 -13 71 -27 85 -31 22 -6 119 -45 280 -114 485 -205 911 -426 1287 -667 62
-40 113 -69 113 -65 0 4 4 2 8 -4 4 -6 52 -41 107 -79 177 -121 435 -315 582
-438 45 -37 87 -66 95 -65 7 2 12 -3 10 -10 -1 -8 10 -23 25 -35 51 -40 244
-213 354 -317 32 -30 64 -60 71 -66 21 -17 363 -375 398 -416 18 -21 37 -35
43 -31 5 3 7 1 3 -5 -3 -5 18 -37 46 -69 61 -67 57 -62 123 -138 28 -32 57
-67 65 -78 8 -10 33 -41 55 -67 43 -52 130 -166 144 -189 5 -8 14 -10 21 -6 9
5 11 4 6 -3 -4 -6 19 -46 51 -89 31 -43 83 -114 116 -157 129 -175 462 -697
532 -836 16 -31 30 -48 37 -44 7 4 8 3 4 -5 -4 -6 13 -48 37 -94 64 -117 197
-385 250 -502 25 -55 58 -129 75 -165 215 -470 446 -1214 551 -1770 109 -585
148 -1049 138 -1648 -7 -386 -17 -566 -47 -824 -22 -192 -69 -503 -101 -673
-10 -55 -20 -113 -23 -130 -2 -16 -6 -37 -9 -45 -3 -8 -13 -49 -22 -90 -24
-110 -74 -320 -85 -360 -6 -19 -19 -69 -29 -110 -11 -41 -29 -104 -39 -140
-11 -36 -32 -105 -46 -155 -40 -134 -142 -437 -183 -545 -20 -52 -44 -115 -53
-140 -9 -25 -24 -62 -34 -82 -9 -21 -16 -39 -16 -42 0 -8 -146 -349 -189 -441
-23 -48 -41 -89 -41 -91 0 -3 -36 -76 -80 -164 -44 -88 -78 -160 -75 -160 2 0
43 66 91 147 48 82 117 198 154 258 95 156 262 484 256 502 -3 8 -2 12 3 9 12
-8 54 72 47 90 -3 8 -2 13 2 10 12 -7 135 253 252 530 40 93 83 193 96 223 13
29 24 57 24 62 0 4 5 20 12 36 6 15 12 30 12 33 1 3 4 10 8 15 7 12 85 219
148 394 22 62 38 117 34 122 -3 5 -1 9 5 9 5 0 13 10 16 23 4 12 33 105 65
207 139 437 251 887 325 1305 58 328 106 714 120 965 3 52 8 104 10 115 2 11
7 160 10 330 15 693 -46 1318 -190 1971 -14 61 -25 115 -25 118 0 4 -5 4 -12
0 -8 -5 -9 -2 -5 11 17 42 -215 828 -238 808 -4 -4 -5 -3 -2 4 9 14 -41 153
-55 153 -5 0 -7 4 -3 9 5 9 -21 88 -55 166 -10 22 -34 78 -53 125 -79 193
-324 692 -397 810 -5 8 -64 107 -131 220 -124 210 -176 288 -185 282 -3 -2 -9
0 -12 4 -4 4 -1 4 6 0 6 -4 12 -4 12 -1 0 3 -46 73 -102 156 -57 83 -110 160
-118 172 -24 36 -247 330 -267 352 -10 11 -36 43 -57 72 -22 29 -44 49 -49 46
-6 -3 -7 -2 -4 4 3 5 -4 20 -16 34 -12 13 -35 40 -51 59 -30 37 -121 141 -196
225 -178 198 -591 606 -755 745 -17 14 -77 66 -135 115 -92 80 -200 167 -335
271 -148 114 -207 154 -217 148 -6 -4 -8 -3 -5 4 4 5 -14 26 -40 44 -75 54
-237 164 -248 169 -5 2 -55 34 -110 70 -231 152 -570 344 -587 333 -6 -4 -8
-3 -5 3 7 11 -140 86 -154 77 -5 -3 -8 -1 -7 4 4 13 -352 194 -369 188 -8 -3
-12 -2 -9 3 11 18 -495 235 -799 342 -286 102 -593 196 -845 260 -442 112
-967 204 -1305 229 -77 6 -159 12 -182 15 -24 2 -43 4 -44 2z m808 -133 c-3
-3 -12 -4 -19 -1 -8 3 -5 6 6 6 11 1 17 -2 13 -5z m438 -72 c-3 -3 -11 0 -18
7 -9 10 -8 11 6 5 10 -3 15 -9 12 -12z m-1238 -44 c-3 -8 -6 -5 -6 6 -1 11 2
17 5 13 3 -3 4 -12 1 -19z m1590 -44 c-3 -3 -12 -4 -19 -1 -8 3 -5 6 6 6 11 1
17 -2 13 -5z m-1887 -576 c0 -4 -4 -8 -9 -8 -6 0 -12 4 -15 8 -3 5 1 9 9 9 8
0 15 -4 15 -9z m4235 -388 c3 -6 -1 -7 -9 -4 -18 7 -21 14 -7 14 6 0 13 -4 16
-10z m-3538 -56 c-3 -3 -12 -4 -19 -1 -8 3 -5 6 6 6 11 1 17 -2 13 -5z m4163
-344 c-8 -5 -19 -10 -25 -10 -5 0 -3 5 5 10 8 5 20 10 25 10 6 0 3 -5 -5 -10z
m397 -316 c-3 -3 -12 -4 -19 -1 -8 3 -5 6 6 6 11 1 17 -2 13 -5z m-2052 -183
c3 -5 2 -12 -3 -15 -5 -3 -9 1 -9 9 0 17 3 19 12 6z m485 -271 c0 -5 -2 -10
-4 -10 -3 0 -8 5 -11 10 -3 6 -1 10 4 10 6 0 11 -4 11 -10z m3125 -1070 c-3
-5 -1 -10 6 -10 7 0 10 -3 6 -6 -9 -9 -28 6 -22 17 4 5 8 9 11 9 3 0 2 -4 -1
-10z m76 -163 c-10 -9 -11 -8 -5 6 3 10 9 15 12 12 3 -3 0 -11 -7 -18z m-1071
-491 c0 -2 -7 -7 -16 -10 -8 -3 -12 -2 -9 4 6 10 25 14 25 6z m99 -131 c0 -5
-4 -3 -9 5 -5 8 -9 22 -9 30 0 16 17 -16 18 -35z m1731 -475 c0 -5 -2 -10 -4
-10 -3 0 -8 5 -11 10 -3 6 -1 10 4 10 6 0 11 -4 11 -10z m-1257 -90 c3 -11 1
-20 -4 -20 -5 0 -9 9 -9 20 0 11 2 20 4 20 2 0 6 -9 9 -20z m1300 -35 c-7 -21
-12 -19 -10 4 0 11 5 18 9 15 4 -3 5 -11 1 -19z m-973 -460 c0 -5 -5 -3 -10 5
-5 8 -10 20 -10 25 0 6 5 3 10 -5 5 -8 10 -19 10 -25z m-25 5 c3 -5 1 -10 -4
-10 -6 0 -11 5 -11 10 0 6 2 10 4 10 3 0 8 -4 11 -10z m1802 -1922 c-3 -8 -6
-5 -6 6 -1 11 2 17 5 13 3 -3 4 -12 1 -19z m-753 -324 c3 -8 2 -12 -4 -9 -6 3
-10 10 -10 16 0 14 7 11 14 -7z m853 -1746 c-3 -7 -5 -2 -5 12 0 14 2 19 5 13
2 -7 2 -19 0 -25z m-538 -113 c0 -5 -4 -3 -9 5 -5 8 -9 22 -9 30 0 16 17 -16
18 -35z m-19 -2389 c0 -3 -4 -8 -10 -11 -5 -3 -10 -1 -10 4 0 6 5 11 10 11 6
0 10 -2 10 -4z m-332 -901 c-3 -3 -9 2 -12 12 -6 14 -5 15 5 6 7 -7 10 -15 7
-18z m-91 -197 c-3 -8 -6 -5 -6 6 -1 11 2 17 5 13 3 -3 4 -12 1 -19z m-134
-138 c-3 -12 -8 -19 -11 -16 -5 6 5 36 12 36 2 0 2 -9 -1 -20z"/>
<path d="M9801 18830 c-689 -36 -1513 -137 -2086 -255 -491 -102 -774 -178
-1261 -340 -1186 -395 -2280 -1027 -3154 -1819 -81 -74 -506 -500 -580 -581
-350 -387 -736 -915 -1002 -1370 -140 -241 -188 -329 -302 -560 -245 -495
-420 -945 -590 -1515 -85 -286 -203 -826 -250 -1150 -74 -495 -91 -814 -83
-1480 6 -450 15 -616 52 -945 86 -774 317 -1646 622 -2355 74 -173 121 -270
132 -270 5 0 58 20 118 44 59 24 160 56 223 72 108 27 127 29 320 29 189 0
213 -2 311 -27 125 -32 237 -75 337 -129 39 -22 72 -37 72 -35 0 3 -28 67 -61
143 -110 247 -262 654 -319 853 -10 36 -30 103 -44 150 -24 77 -66 232 -117
430 -227 879 -343 1874 -310 2648 20 458 65 837 147 1252 284 1427 917 2776
1840 3921 354 440 814 905 1239 1250 1290 1049 2845 1687 4700 1928 260 34
590 66 835 81 91 5 170 11 175 11 6 1 -17 5 -50 10 -93 12 -731 18 -914 9z"/>
<path d="M10320 16793 l-75 -36 -155 7 c-85 3 -203 9 -262 13 l-107 6 -12 -47
c-6 -27 -23 -61 -36 -77 l-25 -29 33 -41 33 -41 -48 -42 c-44 -38 -46 -42 -32
-61 14 -18 15 -158 16 -1202 l0 -1183 -407 0 -408 0 -60 25 c-74 30 -133 31
-205 3 -55 -22 -61 -22 -885 -28 l-830 -5 -1 -63 c-1 -35 -4 -65 -7 -68 -8 -9
-77 16 -112 39 -16 11 -44 35 -61 55 -31 35 -32 35 -110 33 l-79 -2 -54 66
-54 65 -87 0 c-83 0 -91 -2 -138 -34 -28 -18 -73 -39 -101 -46 -27 -6 -62 -23
-77 -37 -26 -24 -26 -25 -22 -136 6 -123 42 -284 84 -373 23 -49 24 -63 31
-322 5 -239 4 -272 -9 -272 -37 0 -82 91 -100 203 l-11 75 -46 -14 c-25 -8
-48 -14 -50 -14 -1 0 11 16 28 35 51 58 38 91 -42 106 -57 11 -162 -7 -214
-36 -23 -13 -58 -28 -76 -34 -19 -6 -47 -25 -63 -42 -27 -28 -29 -36 -29 -102
l0 -72 47 -6 c59 -9 111 -40 137 -82 10 -18 38 -74 61 -126 50 -115 115 -227
144 -246 11 -8 40 -15 65 -15 39 0 49 5 94 50 27 28 51 50 52 50 1 0 0 -22 -3
-48 -4 -48 -4 -49 52 -102 87 -83 86 -82 142 -65 l49 15 42 -46 42 -47 58 7
c32 4 107 16 167 27 130 25 251 23 309 -5 20 -10 37 -22 37 -26 0 -5 -28 -26
-62 -47 l-62 -40 -83 30 -82 29 -87 -33 -88 -34 -18 -75 c-26 -109 -26 -109
-46 -85 -81 99 -74 94 -173 121 l-94 25 -54 -56 c-29 -31 -56 -53 -59 -51 -3
3 -7 28 -10 56 -5 51 -5 51 -63 81 -69 34 -85 36 -94 8 -12 -36 -57 -130 -61
-127 -2 3 -9 39 -15 81 -10 71 -14 78 -44 97 -22 13 -50 20 -85 20 -49 0 -52
1 -46 23 32 122 32 119 -14 209 -24 46 -47 86 -53 89 -5 4 -27 2 -48 -4 -51
-12 -54 -26 -53 -197 1 -149 22 -270 74 -430 l30 -91 -30 -32 c-16 -18 -32
-45 -34 -62 -17 -119 -48 -443 -51 -531 l-4 -106 -100 -191 c-70 -136 -107
-196 -125 -207 -15 -8 -54 -61 -90 -121 l-64 -106 13 -79 12 -79 -31 -39 -31
-40 -18 62 -19 62 -34 -21 -34 -21 0 60 c0 111 -38 157 -76 95 -10 -16 -31
-40 -47 -54 -22 -19 -30 -37 -34 -70 -5 -44 -4 -47 30 -66 l35 -21 -10 -53
c-5 -30 -11 -55 -12 -56 -1 -1 -20 3 -43 9 -40 10 -42 12 -48 58 -5 38 -11 49
-28 54 -45 12 -56 7 -59 -26 -2 -26 -9 -33 -38 -43 -33 -11 -35 -14 -40 -66
-3 -30 -9 -53 -13 -52 -4 1 -23 15 -42 30 -30 26 -36 37 -45 98 -5 39 -10 93
-10 120 0 31 -7 62 -19 82 -20 32 -101 97 -159 127 -83 43 -105 -9 -47 -114
19 -36 47 -90 62 -120 14 -30 49 -104 78 -165 29 -60 79 -146 112 -190 33 -44
77 -106 98 -138 l38 -57 78 6 c68 6 79 5 85 -10 4 -11 -2 -26 -16 -41 l-23
-25 28 -27 c28 -28 60 -91 51 -100 -2 -3 -44 27 -93 66 -88 71 -88 71 -108 51
-20 -20 -20 -20 31 -65 29 -24 65 -66 82 -92 34 -53 87 -202 97 -275 4 -27 12
-48 17 -48 6 0 26 14 45 30 18 17 38 30 43 30 6 0 10 -40 11 -92 l1 -93 39
-33 c26 -23 53 -36 81 -39 31 -4 60 -19 102 -52 49 -39 65 -60 104 -138 39
-79 49 -93 70 -93 20 0 23 4 18 23 -18 61 -17 76 3 116 12 23 27 43 34 45 7 2
31 9 55 15 34 10 45 19 57 46 12 31 58 66 69 54 2 -2 6 -43 7 -92 l4 -87 -28
0 c-35 0 -81 -23 -101 -52 -15 -21 -14 -23 25 -49 22 -14 40 -30 40 -35 0 -5
-24 -14 -53 -19 -52 -10 -53 -11 -56 -48 -3 -31 0 -37 17 -37 54 0 101 -49
101 -106 0 -17 4 -24 13 -21 6 2 65 24 130 48 l119 44 -5 52 c-6 56 1 64 43
53 19 -4 26 -14 31 -43 5 -30 22 -52 97 -122 88 -83 91 -87 79 -113 -16 -37
-25 -42 -82 -42 -40 0 -53 5 -70 24 -16 19 -27 23 -56 19 -36 -5 -37 -6 -44
-59 -6 -51 -8 -54 -35 -54 -25 0 -32 7 -54 55 l-25 55 -53 0 c-45 0 -60 -6
-109 -40 -32 -22 -60 -40 -63 -40 -3 0 -6 50 -6 110 0 88 -3 110 -14 110 -25
0 -73 49 -157 158 -45 59 -112 137 -150 173 -62 62 -161 129 -188 129 -15 0
-14 -82 2 -101 6 -9 35 -32 62 -51 113 -82 237 -234 301 -372 43 -93 91 -280
103 -402 10 -97 18 -114 53 -114 10 0 25 -11 34 -25 15 -22 23 -26 62 -23 41
3 45 6 56 38 16 51 49 53 93 5 31 -34 36 -36 77 -30 l43 7 82 -151 c76 -141
81 -155 81 -211 0 -33 -1 -60 -2 -60 -2 0 -38 33 -81 74 l-79 73 7 65 7 65
-45 7 c-31 5 -52 3 -66 -6 -14 -9 -25 -10 -35 -3 -66 49 -64 48 -111 35 -24
-7 -60 -9 -79 -6 -19 4 -37 3 -40 -2 -3 -5 83 -109 192 -231 108 -123 228
-257 265 -299 38 -42 75 -90 84 -107 9 -16 37 -106 63 -199 l47 -169 59 -43
c44 -32 69 -43 96 -44 l37 0 3 56 3 57 53 -48 c39 -35 52 -54 52 -75 0 -20 6
-29 23 -34 41 -11 54 -6 95 34 36 36 44 40 91 40 l51 0 0 -35 c0 -35 1 -36 95
-80 52 -24 95 -45 95 -47 0 -2 -7 -27 -14 -55 -15 -57 -16 -57 42 -77 l39 -14
14 40 c12 38 14 40 46 34 18 -3 48 -9 67 -12 l35 -6 3 43 3 43 58 -95 c31 -52
57 -98 57 -101 0 -3 -21 -11 -47 -17 -27 -6 -92 -26 -145 -43 l-97 -32 -63 60
c-35 33 -100 81 -145 108 -88 53 -103 73 -103 141 0 25 -2 45 -5 45 -3 0 -29
-16 -58 -35 -71 -48 -115 -48 -154 0 -27 35 -29 35 -63 24 -19 -7 -37 -14 -39
-15 -12 -10 231 -215 377 -319 l82 -59 -27 -28 c-32 -34 -47 -18 152 -168 398
-301 737 -596 867 -757 32 -40 68 -71 93 -82 50 -23 128 -103 194 -201 l51
-74 44 3 c43 2 44 2 79 -55 21 -33 43 -87 53 -130 l17 -73 256 -196 c250 -191
260 -198 436 -281 99 -47 185 -91 192 -97 6 -7 15 -34 18 -60 7 -47 7 -48 -16
-43 -13 3 -42 8 -63 11 -40 7 -93 42 -645 428 -123 86 -227 157 -232 157 -5 0
-9 -11 -9 -24 0 -13 -2 -30 -5 -38 -4 -9 123 -115 362 -303 202 -160 380 -302
396 -316 31 -27 30 -20 47 -230 0 -4 53 -38 118 -76 100 -60 122 -70 153 -66
40 5 36 -2 99 148 l38 90 -8 125 c-8 107 -7 126 6 135 9 6 56 36 105 67 83 54
89 60 89 91 0 26 7 39 32 57 26 19 42 23 102 21 111 -2 187 30 222 94 l16 31
72 -8 c39 -4 83 -7 98 -7 24 -1 37 -18 112 -138 114 -186 107 -178 194 -222
71 -36 85 -39 193 -46 111 -7 117 -6 166 19 29 14 54 29 57 34 2 4 -1 33 -7
63 -12 53 -13 55 -95 108 -82 54 -82 54 -82 97 0 41 3 46 72 104 70 58 73 60
129 60 l58 0 12 42 c16 60 54 133 93 176 27 30 34 48 40 99 6 58 5 63 -23 96
-17 18 -51 45 -75 58 -29 15 -50 35 -58 54 -7 16 -32 51 -56 77 -35 38 -45 57
-50 93 -5 52 -1 54 63 23 28 -14 48 -18 54 -12 15 15 173 404 169 416 -4 10
-95 63 -463 265 -269 149 -260 145 -329 132 -48 -9 -60 -7 -96 11 -22 11 -40
22 -40 25 0 2 29 44 64 94 l63 90 -12 48 c-10 39 -10 55 1 87 21 57 18 68 -27
111 l-41 40 5 167 c6 164 6 168 -18 210 -31 54 -31 58 3 58 70 0 206 -91 267
-180 15 -22 30 -40 34 -40 3 0 42 32 86 71 84 75 165 120 285 160 l71 23 89
-89 c87 -86 91 -89 147 -96 32 -4 257 -8 501 -8 l442 -1 0 52 c0 49 -2 53 -54
102 -54 51 -54 51 -49 101 4 41 11 56 38 80 19 17 37 44 40 60 4 17 9 37 11
46 3 9 -14 40 -37 70 l-42 53 21 36 c20 35 20 40 7 91 -12 45 -24 63 -75 109
l-60 55 23 75 c12 41 26 81 30 87 5 8 26 11 58 10 l50 -3 32 58 c30 56 33 58
71 58 31 0 47 -7 71 -29 27 -27 38 -30 98 -32 57 -2 73 1 99 21 25 18 34 21
47 11 32 -23 81 -41 115 -41 43 0 50 -10 151 -198 74 -140 75 -142 75 -217 0
-79 13 -119 53 -162 16 -18 31 -23 72 -23 l51 0 59 -86 58 -86 -12 -42 c-7
-22 -17 -58 -24 -79 -11 -35 -10 -39 20 -68 l31 -31 41 60 41 61 46 -19 c72
-31 157 -50 226 -50 39 0 96 -9 144 -24 43 -13 172 -45 286 -71 l207 -48 100
96 c55 53 129 118 165 144 43 33 81 75 117 129 l54 79 -9 58 -9 58 56 57 c49
49 59 55 70 42 8 -8 87 -124 177 -257 l162 -242 -58 -98 c-31 -54 -63 -107
-71 -119 -12 -19 -9 -24 47 -68 l61 -48 171 27 c178 27 188 30 188 45 0 11 98
262 106 269 2 3 28 -22 58 -54 29 -32 57 -56 62 -52 5 3 20 26 34 51 l25 46
-69 137 c-78 156 -81 135 35 204 67 39 67 39 91 114 l25 76 -27 92 c-15 51
-24 95 -21 99 4 4 107 23 231 43 123 19 228 39 232 43 11 11 -8 188 -26 238
-8 23 -24 60 -36 83 -20 40 -20 47 -9 116 12 72 12 78 -19 192 -18 65 -32 120
-32 124 0 3 43 40 96 84 52 43 99 85 103 94 5 9 14 48 21 88 l13 72 -73 86
c-39 47 -70 88 -69 89 2 2 23 13 45 24 l41 21 5 83 c5 76 2 92 -29 183 -40
115 -110 260 -159 328 l-34 47 34 53 c32 48 34 55 26 102 -9 56 -10 51 42 121
21 28 38 56 38 63 0 6 -11 34 -25 61 l-25 49 35 55 c31 48 35 63 35 119 l0 65
54 37 55 37 -27 55 -27 55 28 20 29 21 -137 137 -137 137 -37 -8 c-20 -5 -39
-9 -44 -9 -4 0 -17 20 -29 45 -12 25 -25 45 -30 45 -4 0 -37 -11 -74 -25 l-66
-25 -40 29 -39 29 -61 -34 c-34 -19 -63 -33 -65 -30 -2 2 8 32 22 67 l26 64
-46 105 -47 105 -85 52 -85 53 -60 -31 -61 -31 -31 23 c-17 12 -45 33 -63 47
l-32 24 -7 -29 c-13 -59 -16 -64 -31 -59 -8 3 -26 6 -39 6 -22 0 -24 4 -24 49
l0 50 -43 6 c-59 9 -67 15 -72 58 -5 35 -2 38 108 134 61 54 136 118 165 142
28 24 52 48 52 52 0 4 -10 9 -22 11 -35 5 -37 56 -3 88 38 35 33 56 -17 68
l-43 11 0 73 c0 100 -16 145 -70 198 -24 25 -45 48 -45 51 0 4 25 38 55 77 30
38 64 96 76 128 27 74 79 125 154 153 115 43 165 79 165 117 0 26 -43 64 -72
64 -13 0 3 22 60 80 l78 80 79 -10 c81 -11 175 -6 230 11 22 7 35 20 48 53 10
25 38 66 63 92 39 42 44 53 44 94 0 41 4 49 33 70 17 13 67 52 109 87 l77 64
-20 56 c-10 31 -19 64 -19 74 0 10 27 37 65 64 36 25 65 48 65 51 0 3 -43 54
-97 112 -121 134 -151 175 -159 219 -6 30 -17 42 -75 80 -41 26 -69 51 -69 61
0 9 -5 83 -10 165 l-10 147 -38 34 c-20 18 -86 75 -147 126 -102 86 -112 91
-145 86 -19 -3 -58 -8 -85 -11 l-50 -7 -68 86 -68 85 -212 -6 c-117 -3 -220
-10 -229 -15 -24 -12 -23 -51 2 -73 28 -26 21 -55 -18 -78 -18 -10 -94 -37
-169 -59 -162 -47 -190 -60 -266 -127 -67 -59 -95 -69 -134 -48 -15 8 -46 24
-68 36 -73 39 -160 22 -324 -62 -90 -46 -127 -59 -176 -64 -67 -6 -215 4 -214
15 0 4 54 52 120 106 66 54 118 104 116 110 -2 6 -37 109 -78 229 l-74 218
-45 -3 -44 -3 -9 55 c-4 30 -4 141 1 246 l8 192 39 75 c43 83 42 107 -5 107
-27 0 -30 3 -30 30 0 66 56 135 197 243 34 26 72 61 83 78 45 62 35 222 -16
270 -29 27 -31 50 -4 74 15 14 20 31 20 69 -1 80 -32 106 -127 106 -55 0 -163
-21 -283 -55 -43 -13 -99 -16 -255 -14 -135 2 -209 -1 -228 -9 -32 -14 -58 -4
-94 35 -30 32 -66 29 -119 -9 l-44 -31 -112 11 c-62 6 -196 14 -298 17 -208 6
-297 21 -370 62 -42 24 -53 26 -67 15 -10 -7 -38 -22 -63 -34 -44 -21 -53 -21
-335 -15 -159 4 -355 12 -433 17 -123 8 -147 8 -165 -5 -12 -9 -43 -15 -72
-15 -58 0 -102 23 -156 81 -45 48 -63 49 -159 2z m157 -43 c97 -83 156 -99
231 -61 36 18 48 18 347 5 171 -8 367 -15 436 -16 122 -3 127 -2 167 25 42 27
95 36 107 17 4 -6 24 -20 47 -31 44 -23 224 -38 443 -39 66 0 159 -7 208 -16
l87 -16 53 36 c29 20 55 36 59 36 3 0 25 -16 48 -35 44 -37 68 -42 103 -23 15
8 85 11 224 9 201 -2 202 -2 355 34 215 52 278 43 278 -38 0 -17 -11 -42 -26
-60 -28 -34 -26 -69 5 -96 27 -24 38 -50 46 -107 13 -97 -2 -122 -130 -229
-121 -101 -155 -139 -174 -194 -24 -73 -10 -121 36 -121 l23 0 -32 -62 c-31
-60 -33 -70 -40 -208 -3 -80 -10 -155 -14 -168 -3 -13 -1 -70 6 -127 l14 -104
49 -3 49 -3 63 -181 c34 -99 65 -189 69 -200 5 -16 -17 -39 -119 -123 -106
-88 -124 -107 -119 -125 4 -12 11 -24 17 -28 6 -3 75 -7 155 -7 l145 -2 135
68 c122 62 141 68 206 71 64 3 75 1 110 -23 78 -53 132 -47 211 25 70 64 104
80 265 130 158 48 211 75 224 113 8 22 6 33 -13 57 -12 17 -20 34 -17 38 3 5
94 9 203 11 l198 2 68 -86 c57 -71 73 -86 90 -81 12 3 52 8 88 12 l65 6 131
-111 c73 -61 134 -114 137 -119 3 -5 8 -79 12 -165 4 -85 10 -160 13 -165 3
-5 36 -28 74 -51 37 -24 67 -49 67 -57 0 -30 43 -97 113 -176 40 -45 84 -96
100 -114 l27 -33 -62 -47 c-35 -26 -64 -48 -65 -49 -2 -1 8 -34 21 -73 l24
-70 -109 -89 c-110 -87 -110 -88 -108 -128 2 -35 -4 -49 -40 -95 -23 -29 -51
-70 -62 -91 -17 -35 -23 -38 -76 -45 -52 -6 -182 0 -243 11 -21 4 -33 -6 -75
-55 -28 -34 -81 -80 -122 -107 -40 -25 -73 -50 -73 -55 0 -4 29 -8 64 -8 49 0
69 -5 87 -20 l24 -20 -23 -17 c-12 -10 -65 -36 -118 -58 -111 -46 -150 -82
-183 -170 -12 -32 -39 -79 -60 -104 -87 -106 -89 -120 -26 -188 58 -63 69 -97
62 -199 l-5 -84 34 -6 c35 -6 44 -24 21 -42 -8 -7 -12 -33 -11 -72 l1 -60
-138 -118 -138 -117 -1 -63 c0 -41 4 -64 13 -67 6 -2 31 -9 55 -15 l42 -11 0
-48 0 -48 46 -7 c88 -12 100 -9 110 25 l9 30 48 -37 48 -38 63 31 62 31 60
-37 c87 -52 88 -52 128 -150 l37 -89 -36 -88 c-24 -60 -32 -91 -25 -98 7 -7
37 4 94 34 l84 45 31 -23 c37 -27 43 -27 116 -2 32 11 59 19 60 18 2 -2 12
-22 24 -46 23 -46 28 -47 101 -26 10 2 60 -41 130 -112 l115 -115 -23 -19 -23
-19 26 -50 c14 -28 25 -52 25 -55 0 -2 -22 -21 -49 -41 l-50 -36 5 -61 c4 -58
2 -64 -36 -124 l-41 -62 25 -51 c14 -28 26 -54 26 -58 0 -4 -20 -34 -44 -66
-43 -57 -43 -58 -34 -113 8 -54 8 -57 -30 -112 l-39 -57 42 -53 c82 -104 195
-369 195 -457 0 -86 -9 -104 -61 -131 -27 -13 -49 -27 -49 -31 0 -3 34 -48 75
-99 41 -51 75 -102 75 -113 0 -11 -5 -43 -11 -70 -10 -49 -16 -55 -129 -148
-65 -54 -119 -103 -119 -109 -1 -7 8 -14 18 -17 14 -3 27 -28 46 -88 29 -93
33 -145 15 -220 -12 -48 -11 -53 20 -112 34 -64 60 -165 60 -233 l0 -41 -240
-39 c-150 -24 -240 -43 -240 -50 0 -6 13 -56 30 -110 l29 -99 -21 -66 -21 -65
-93 -57 -94 -58 70 -139 c39 -77 70 -146 70 -154 0 -7 -7 -20 -16 -27 -15 -12
-24 -6 -75 50 -33 35 -59 62 -59 60 -1 -2 -29 -76 -63 -164 l-63 -160 -124
-22 c-177 -30 -193 -30 -236 10 l-36 32 67 113 67 113 -183 276 c-101 151
-187 280 -191 287 -5 7 -38 -20 -91 -72 l-84 -84 13 -55 13 -56 -49 -72 c-31
-46 -74 -92 -117 -126 -37 -29 -107 -91 -155 -137 -103 -99 -52 -98 -403 -11
-166 41 -260 59 -304 59 -56 0 -171 30 -283 75 -13 5 -25 -5 -48 -44 -51 -82
-68 -58 -30 41 11 29 20 59 20 66 0 6 -30 55 -66 107 l-66 95 -52 0 c-57 0
-70 9 -100 68 -14 27 -16 47 -11 97 l7 63 -103 185 -103 185 -54 5 c-59 6
-102 29 -109 58 -7 25 -8 25 -57 -16 -37 -30 -51 -35 -95 -35 -44 0 -56 5 -90
35 -37 34 -41 35 -95 29 -55 -7 -57 -8 -87 -60 l-30 -54 -59 0 c-47 0 -60 -3
-64 -17 -3 -10 -17 -60 -31 -110 l-25 -93 39 -35 c22 -20 50 -44 64 -55 14
-12 29 -38 36 -66 11 -43 10 -48 -15 -81 l-26 -34 46 -60 c41 -53 46 -64 40
-94 -3 -19 -16 -40 -29 -49 -50 -33 -55 -44 -55 -119 l0 -72 49 -40 c32 -26
50 -50 53 -67 l5 -28 -471 0 -471 0 -95 95 c-52 52 -102 95 -112 95 -19 0
-199 -70 -257 -100 -20 -10 -68 -45 -107 -78 l-71 -60 -42 49 c-23 27 -66 65
-94 85 -81 54 -234 94 -252 65 -3 -5 10 -38 30 -74 l35 -64 0 -174 0 -175 39
-38 39 -38 -14 -42 c-11 -29 -13 -55 -8 -86 5 -25 8 -50 7 -56 0 -6 -30 -52
-67 -101 -36 -50 -66 -95 -66 -100 0 -6 28 -24 63 -40 58 -29 66 -30 114 -21
29 6 62 8 75 4 21 -5 145 -73 543 -295 72 -40 133 -76 138 -80 4 -4 -26 -88
-67 -187 -83 -198 -75 -190 -157 -149 -26 13 -49 22 -52 19 -5 -6 0 -100 9
-141 2 -13 24 -44 47 -71 24 -26 49 -63 56 -81 9 -20 28 -39 51 -51 21 -10 51
-31 69 -45 27 -24 31 -33 31 -79 0 -43 -4 -57 -25 -76 -35 -33 -80 -107 -95
-155 -18 -57 -25 -62 -72 -58 -41 4 -47 1 -130 -72 l-88 -76 0 -57 0 -57 85
-54 c72 -45 86 -59 95 -90 13 -49 15 -45 -32 -69 -40 -21 -50 -21 -153 -13
-101 8 -115 12 -179 47 -68 39 -70 41 -166 194 -110 175 -92 163 -255 175
l-93 7 -11 -34 c-7 -22 -26 -43 -53 -61 -42 -27 -64 -31 -168 -28 -48 1 -61
-3 -102 -34 -40 -29 -48 -41 -48 -68 0 -30 -7 -36 -98 -93 l-97 -61 0 -149 0
-149 -41 -90 c-30 -68 -45 -91 -61 -93 -13 -2 -65 23 -126 58 l-105 62 -7 107
c-6 81 -12 109 -24 117 -9 7 -109 85 -222 175 -113 90 -283 224 -377 298 -94
74 -170 137 -167 139 2 2 183 -121 402 -274 428 -300 409 -290 542 -293 l33
-1 -7 48 c-17 121 -3 108 -217 207 -178 84 -203 99 -352 214 -89 67 -202 154
-252 192 -89 68 -91 70 -103 127 -16 73 -42 132 -78 177 -25 31 -33 35 -73 35
-41 0 -48 3 -65 33 -57 98 -167 216 -228 245 -25 12 -57 41 -79 69 -102 135
-465 453 -872 763 l-149 114 32 27 32 26 -123 86 c-144 100 -338 254 -338 268
0 16 13 10 46 -22 37 -36 82 -42 133 -16 45 22 51 21 51 -6 0 -37 27 -65 118
-123 48 -31 115 -83 149 -117 l62 -60 113 36 c62 20 142 43 177 51 34 8 64 16
66 18 2 2 -34 64 -79 138 -69 114 -86 135 -107 135 -22 0 -24 -5 -27 -47 -2
-27 -4 -48 -5 -48 -1 0 -26 7 -56 14 l-53 15 -16 -40 c-8 -21 -21 -39 -29 -39
-15 0 -16 28 -4 84 l9 38 -99 46 -99 45 0 44 0 43 -82 -6 c-79 -6 -84 -8 -111
-40 -34 -41 -67 -46 -67 -10 0 17 -22 44 -79 95 -43 39 -81 71 -84 71 -2 0 -8
-31 -11 -70 -8 -82 -15 -85 -83 -36 l-48 34 -44 164 c-24 90 -54 181 -66 204
-13 22 -130 159 -260 304 -158 177 -231 266 -223 271 7 4 28 10 46 14 27 6 38
3 57 -15 25 -24 48 -27 108 -15 l39 8 -3 -66 -4 -66 41 -29 c22 -16 65 -57 96
-92 77 -86 88 -81 88 44 l0 95 -62 113 c-34 62 -73 134 -87 161 l-26 47 -47
-6 c-45 -6 -49 -5 -81 30 -19 20 -42 36 -51 36 -31 0 -76 -30 -82 -55 -8 -31
-43 -34 -68 -6 -10 11 -28 21 -40 23 -18 3 -22 12 -28 68 -30 265 -103 465
-235 638 -55 72 -152 163 -213 198 -16 10 -30 26 -30 36 0 25 11 23 56 -11 62
-45 109 -95 212 -225 53 -67 113 -137 135 -156 l38 -35 4 -104 c5 -143 11
-148 104 -83 97 68 126 67 161 -5 24 -51 25 -51 75 -55 27 -3 53 -2 58 2 4 4
10 30 14 58 7 59 31 71 52 26 11 -25 15 -26 64 -20 29 3 65 6 80 6 24 0 32 8
53 53 l24 52 -94 91 c-90 86 -101 104 -108 164 -3 24 -7 25 -74 28 l-70 3 4
-59 4 -59 -91 -37 c-103 -41 -101 -40 -101 -24 0 25 -46 79 -77 90 -18 7 -33
15 -33 19 0 4 33 13 73 20 107 18 109 20 38 68 -33 23 -61 46 -61 50 0 15 59
31 90 24 l30 -5 0 63 c0 35 -3 94 -7 131 -5 58 -9 68 -25 68 -40 0 -87 -29
-113 -69 -14 -24 -33 -41 -44 -41 -49 0 -81 -22 -102 -71 -12 -27 -25 -49 -29
-49 -3 0 -17 23 -30 50 -30 65 -130 145 -193 155 -27 5 -54 18 -75 38 l-32 31
0 103 c0 117 -6 124 -72 79 l-35 -23 -23 79 c-12 43 -36 106 -51 139 -16 34
-29 63 -29 66 0 2 19 -9 42 -27 l43 -31 3 43 c4 52 -13 113 -38 138 -17 17
-18 22 -5 47 19 35 19 44 1 69 -12 16 -27 19 -98 19 l-83 0 -83 115 c-52 73
-107 165 -148 250 -35 74 -70 144 -76 155 -75 130 -113 224 -76 187 7 -7 19
-12 28 -12 8 0 41 -20 72 -45 66 -51 73 -69 83 -214 3 -52 10 -101 14 -109 4
-7 39 -38 77 -67 l69 -54 3 75 3 76 39 15 c32 13 40 21 40 41 0 35 13 19 25
-30 10 -38 13 -41 70 -59 33 -10 65 -19 70 -19 10 0 35 115 35 159 0 11 -15
28 -34 39 -41 24 -40 51 5 96 16 15 29 32 29 37 0 5 4 9 10 9 16 0 23 -71 13
-137 -5 -34 -8 -63 -6 -63 2 0 21 11 41 25 20 14 39 25 43 25 3 0 14 -27 24
-60 10 -34 21 -63 25 -65 4 -2 31 25 59 61 l53 66 -12 82 -12 82 58 98 c34 57
68 103 83 111 19 9 56 70 132 217 l107 203 6 160 c3 88 11 189 17 225 5 36 14
109 19 164 8 95 10 100 45 136 l36 37 -30 89 c-94 279 -116 635 -38 611 5 -1
25 -33 45 -71 l36 -68 -17 -82 c-9 -44 -17 -86 -17 -93 0 -8 18 -9 58 -6 42 4
67 1 89 -10 27 -14 31 -23 37 -72 15 -127 29 -205 37 -205 5 0 9 4 9 10 0 5
22 57 50 115 l49 106 39 -20 c44 -22 52 -36 52 -89 0 -20 3 -54 6 -75 l7 -37
76 82 77 82 80 -23 c78 -22 80 -24 139 -96 33 -41 63 -74 67 -75 4 0 12 19 18
43 33 127 44 163 51 173 5 6 39 21 77 34 l68 23 82 -27 82 -28 78 49 c99 63
103 84 23 127 -79 42 -159 45 -335 12 -156 -29 -211 -32 -223 -12 -4 7 -20 27
-34 44 l-27 31 -56 -16 -56 -16 -54 49 -54 49 -1 67 c-1 64 -2 68 -27 74 -19
5 -29 2 -36 -9 -35 -64 -104 -113 -144 -103 -29 8 -75 74 -120 174 -49 109
-83 171 -116 214 -29 37 -116 88 -151 88 -17 0 -19 5 -14 47 4 37 12 54 36 75
17 15 41 28 53 28 11 0 36 11 54 25 55 42 189 60 230 31 18 -14 16 -17 -41
-70 -74 -69 -68 -85 23 -62 33 9 64 16 69 16 4 0 14 -28 20 -62 23 -118 73
-190 151 -213 l22 -6 0 291 c0 287 0 291 -25 350 -69 164 -113 403 -85 469 10
26 24 34 91 56 44 15 93 38 108 51 25 20 40 24 99 24 l70 0 52 -65 52 -65 81
0 c81 0 82 0 110 -35 32 -40 134 -92 192 -97 l40 -3 3 68 3 67 798 0 799 0 58
27 c82 37 161 38 229 0 l50 -27 425 2 425 3 3 1198 c1 836 -1 1204 -9 1218 -8
16 -6 23 13 38 13 10 34 27 47 38 l23 19 -30 45 -30 45 31 64 32 65 220 -17
c121 -10 234 -16 250 -13 17 3 64 21 105 40 41 19 78 35 82 35 3 0 33 -22 65
-50z"/>
<path d="M10490 14587 c-35 -18 -50 -53 -50 -123 l0 -60 -127 -100 c-153 -118
-468 -429 -580 -571 -305 -384 -510 -783 -613 -1192 -84 -333 -120 -678 -120
-1148 l0 -233 710 0 c391 0 710 -3 710 -7 0 -5 -142 -150 -315 -323 l-315
-315 119 -135 c65 -74 117 -139 114 -143 -3 -4 22 -37 55 -72 64 -67 128 -183
138 -247 4 -25 1 -43 -9 -58 -11 -16 -13 -29 -7 -46 13 -33 -5 -70 -59 -121
l-44 -43 -34 21 c-18 11 -42 32 -53 47 -12 15 -37 34 -55 42 -46 20 -223 167
-230 191 -4 10 -13 19 -21 19 -19 0 -164 139 -175 168 -5 12 -19 26 -32 31
-24 9 -157 146 -186 191 -8 14 -34 43 -56 65 -63 63 -136 162 -147 201 -5 21
-18 38 -32 43 -25 10 -146 187 -146 214 0 10 -11 28 -24 40 -27 26 -121 185
-137 235 -6 19 -18 42 -26 51 -26 31 -125 256 -131 296 -2 22 -13 50 -24 61
-20 23 -118 301 -118 336 0 30 -61 85 -107 97 -22 6 -59 12 -82 13 -22 1 -41
2 -41 3 0 2 16 29 35 61 48 80 74 154 86 244 31 248 -98 484 -326 596 -174 85
-348 84 -525 -2 -94 -46 -211 -160 -255 -249 -16 -33 -44 -84 -63 -113 -18
-29 -45 -83 -60 -120 -24 -61 -26 -79 -26 -202 0 -118 3 -143 23 -195 34 -87
104 -188 171 -247 l59 -51 -67 -47 c-125 -89 -203 -177 -223 -251 -12 -45 -12
-47 41 -150 29 -57 72 -139 96 -181 24 -43 44 -87 44 -98 0 -11 15 -36 34 -54
18 -19 51 -63 72 -98 21 -34 55 -87 76 -117 21 -30 38 -62 38 -71 0 -9 14 -29
31 -46 34 -32 185 -222 209 -263 8 -14 75 -87 148 -161 73 -74 140 -147 148
-163 8 -15 32 -38 52 -51 21 -13 78 -59 128 -102 49 -44 101 -89 117 -100 15
-12 27 -26 27 -31 0 -17 45 -52 80 -64 19 -7 51 -24 70 -39 19 -15 77 -55 129
-89 52 -34 106 -73 119 -87 14 -13 33 -24 42 -24 10 0 47 -16 82 -36 34 -20
116 -62 180 -94 64 -32 123 -62 130 -66 7 -5 40 -18 73 -30 236 -84 321 -116
329 -125 6 -5 20 -9 32 -9 12 0 78 -13 146 -29 68 -17 158 -35 201 -42 l78
-12 35 -53 c19 -29 63 -79 97 -110 56 -52 59 -57 32 -51 -53 12 -299 19 -339
10 l-38 -8 -170 -350 c-94 -193 -176 -374 -184 -403 -17 -63 -54 -138 -88
-180 -15 -16 -26 -32 -26 -35 0 -2 39 -8 88 -11 384 -30 705 -120 920 -259 38
-25 78 -57 88 -72 55 -77 65 -85 106 -85 33 0 45 6 67 32 69 84 122 126 216
175 196 101 489 178 770 203 166 15 164 14 133 48 -32 34 -75 119 -95 186 -8
28 -91 210 -185 403 -170 351 -171 353 -206 359 -36 7 -277 -2 -347 -12 l-40
-6 50 40 c28 22 72 69 98 105 l47 64 123 22 c124 22 162 32 369 95 64 20 126
36 139 36 12 0 30 6 38 14 9 8 52 29 96 46 44 18 145 63 224 101 79 38 148 66
153 63 6 -4 22 6 37 21 14 15 75 56 134 91 60 35 135 82 168 105 33 22 73 45
89 50 15 6 31 16 33 24 3 7 50 48 104 91 84 68 236 195 283 237 8 7 76 78 151
158 141 149 197 215 325 381 40 53 80 101 88 105 8 4 21 24 30 43 8 19 56 98
106 175 49 77 133 225 186 329 l96 189 -49 71 c-26 39 -92 116 -145 170 -54
55 -97 100 -95 101 203 126 307 302 307 523 0 256 -159 474 -405 558 -199 67
-428 16 -583 -131 -78 -73 -123 -144 -159 -247 -37 -106 -37 -251 1 -361 14
-42 26 -79 26 -81 0 -2 -35 -6 -77 -10 -91 -8 -202 -30 -213 -42 -4 -5 -18
-45 -30 -89 -29 -106 -70 -225 -87 -250 -7 -11 -13 -27 -13 -37 0 -28 -101
-257 -126 -288 -13 -15 -24 -35 -24 -44 0 -36 -119 -248 -161 -288 -16 -15
-29 -36 -29 -48 0 -23 -100 -175 -135 -205 -13 -11 -28 -31 -33 -45 -13 -35
-165 -223 -196 -244 -14 -9 -26 -22 -26 -29 0 -22 -175 -209 -211 -226 -19 -9
-36 -26 -39 -39 -6 -28 -188 -192 -213 -192 -10 0 -25 -13 -34 -29 -19 -32
-213 -181 -237 -181 -8 0 -25 -10 -36 -22 l-20 -22 -52 51 c-50 51 -52 53 -50
107 1 30 -3 58 -8 61 -15 9 -12 46 9 108 25 72 76 150 135 209 27 26 45 51 42
56 -3 6 46 69 110 142 l116 132 -28 31 c-16 18 -155 159 -309 314 -154 156
-282 288 -284 294 -1 5 3 10 10 8 8 -1 326 -1 707 0 l692 1 0 283 c0 434 -24
681 -96 1011 -85 383 -256 762 -497 1100 -201 283 -487 579 -752 778 l-80 61
-6 75 c-6 69 -10 79 -38 104 -34 30 -71 35 -111 15z m95 -32 l25 -24 0 -1683
0 -1683 320 -320 c176 -176 320 -324 320 -329 0 -5 -19 -30 -42 -55 -24 -26
-77 -86 -118 -134 -57 -67 -89 -96 -134 -119 -33 -16 -77 -42 -98 -56 -21 -13
-40 -23 -42 -21 -2 2 -24 30 -49 61 l-46 57 131 131 132 131 -222 222 -222
222 -222 -223 -223 -223 134 -129 134 -129 -34 -38 c-19 -21 -41 -49 -50 -62
l-15 -24 -70 41 c-38 23 -82 46 -99 53 -19 7 -76 64 -152 152 l-123 142 320
320 320 320 0 1677 c0 1211 3 1684 11 1702 22 48 78 58 114 21z m-145 -270 l0
-75 -97 0 c-85 0 -95 2 -83 14 28 28 165 135 173 136 4 0 7 -34 7 -75z m320
-14 c30 -24 59 -48 65 -53 5 -4 -35 -8 -88 -8 l-97 0 0 76 0 75 33 -22 c17
-12 57 -43 87 -68z m-320 -316 l0 -85 -270 0 c-148 0 -270 3 -270 7 0 4 35 43
77 85 l78 78 192 0 193 0 0 -85z m614 53 c17 -18 54 -57 80 -85 l49 -53 -272
0 -271 0 0 85 0 85 190 0 191 0 33 -32z m-614 -388 c0 -55 -4 -82 -13 -85 -6
-3 -191 -4 -410 -3 l-398 3 61 83 61 82 349 0 350 0 0 -80z m952 0 c32 -41 58
-78 58 -82 0 -5 -182 -8 -405 -8 l-405 0 0 85 0 85 347 -2 347 -3 58 -75z
m-954 -342 l-3 -83 -512 -3 c-282 -1 -513 1 -513 6 0 4 20 42 45 85 l45 77
471 0 470 0 -3 -82z m1180 8 c23 -40 42 -78 42 -84 0 -9 -132 -12 -510 -12
l-510 0 0 85 0 85 468 0 467 0 43 -74z m-1178 -346 l0 -80 -595 0 -595 0 20
51 c11 28 27 64 35 80 l16 29 559 0 560 0 0 -80z m1349 6 c17 -41 31 -77 31
-80 0 -3 -265 -6 -590 -6 l-590 0 0 80 0 80 559 0 559 0 31 -74z m-3884 -8
c72 -16 130 -43 201 -93 144 -103 234 -276 234 -450 0 -76 -22 -182 -49 -232
l-20 -38 5 40 c3 22 10 69 16 105 24 137 11 244 -43 354 -62 125 -165 214
-302 263 -60 22 -89 26 -172 26 -143 -1 -250 -42 -355 -137 -62 -56 -130 -108
-130 -100 0 16 82 114 122 146 145 116 313 155 493 116z m-11 -63 c199 -52
347 -214 377 -412 15 -99 8 -134 -13 -67 -81 258 -302 425 -564 425 -58 0
-115 -6 -150 -16 -31 -9 -58 -14 -61 -12 -12 12 122 72 202 90 45 10 155 6
209 -8z m-107 -90 c268 -51 463 -285 463 -555 0 -187 -101 -372 -256 -470 -94
-59 -163 -81 -274 -87 -120 -7 -188 7 -292 59 -172 86 -288 259 -304 452 -25
285 178 550 459 601 96 18 112 18 204 0z m5797 -1 c201 -51 370 -218 417 -414
17 -69 16 -198 0 -270 -30 -125 -127 -262 -234 -331 -49 -32 -63 -37 -79 -28
-19 10 -16 13 28 39 162 92 263 266 263 450 1 103 -10 150 -51 237 -42 90
-148 196 -238 240 -246 118 -533 38 -682 -191 -91 -141 -105 -331 -37 -493
l18 -43 -23 0 c-19 0 -26 10 -43 63 -30 89 -34 111 -34 197 0 151 56 285 161
390 142 142 348 202 534 154z m-54 -54 c100 -16 216 -77 284 -151 94 -101 137
-209 137 -344 0 -182 -101 -354 -255 -436 l-46 -24 -62 34 c-76 41 -93 55 -83
71 4 7 9 28 10 47 2 28 -3 37 -27 50 -49 30 -39 37 44 33 l47 -2 3 39 3 38 17
-31 c14 -25 26 -33 59 -38 25 -4 46 -3 52 3 7 7 14 5 23 -6 10 -15 16 -15 38
-5 16 7 26 20 26 32 0 11 6 23 14 26 17 7 31 107 18 131 -7 11 -7 26 0 42 8
23 5 29 -26 54 -20 16 -36 38 -36 49 0 11 16 40 37 64 l36 45 -29 42 c-31 43
-75 60 -97 38 -6 -6 -19 -11 -30 -11 -16 0 -18 7 -15 61 l3 61 -110 4 c-60 2
-122 1 -137 -2 -28 -6 -28 -6 -28 -85 l0 -80 -103 2 c-110 3 -127 -2 -127 -31
0 -10 -7 -20 -15 -24 -11 -4 -15 -21 -15 -66 0 -81 -11 -101 -50 -93 -17 3
-30 3 -30 1 0 -13 45 -106 61 -127 11 -13 19 -31 19 -41 0 -9 9 -25 20 -35 11
-10 20 -23 20 -29 0 -5 19 -30 43 -54 29 -31 36 -42 22 -38 -58 16 -115 26
-161 26 -62 0 -76 13 -105 96 -29 82 -35 201 -15 288 42 179 198 332 379 371
77 17 105 17 187 5z m-3092 -127 l3 -83 -652 0 c-581 0 -651 2 -645 15 3 9 13
44 22 78 9 34 18 65 21 69 2 5 284 7 626 6 l622 -3 3 -82z m1463 32 c9 -27 20
-65 24 -82 l7 -33 -646 0 -646 0 0 85 0 85 623 -2 622 -3 16 -50z m1749 -24
c0 -4 -5 -22 -11 -40 -8 -23 -8 -35 0 -45 8 -10 9 -16 1 -21 -6 -3 -8 -10 -5
-15 6 -10 76 -1 90 11 18 18 45 8 60 -21 20 -38 21 -34 -20 -79 -20 -22 -35
-43 -34 -48 1 -4 -2 -17 -6 -27 -5 -12 -5 -21 1 -23 32 -11 79 -43 76 -53 -3
-12 -3 -32 -2 -102 1 -36 -5 -52 -24 -73 -23 -24 -25 -25 -34 -8 -10 17 -12
17 -35 -5 -29 -27 -64 -19 -91 23 -25 38 -60 31 -64 -12 l-3 -32 -54 4 c-48 4
-55 2 -60 -16 -10 -31 2 -66 26 -72 16 -4 20 -12 17 -39 -3 -29 -6 -33 -28
-30 -48 5 -135 43 -167 72 -51 46 -123 139 -123 160 0 10 -5 22 -10 25 -9 5
-50 82 -50 93 0 2 8 1 18 -2 26 -9 52 51 52 119 0 42 3 55 15 55 9 0 15 9 15
23 0 22 2 22 112 22 l113 0 3 83 3 82 109 0 c61 0 110 -4 110 -9z m-3638 -307
c-29 -25 -62 -64 -73 -85 l-19 -39 -426 0 c-400 0 -425 1 -421 18 3 9 8 35 11
57 4 22 9 52 12 68 l6 27 481 0 482 0 -53 -46z m276 17 c154 -80 186 -279 64
-400 -66 -66 -157 -88 -253 -61 -86 24 -169 137 -169 231 0 187 196 313 358
230z m148 16 c3 -8 4 -45 2 -83 l-3 -69 -19 37 c-18 38 -88 108 -106 108 -6 0
-10 5 -10 10 0 16 130 13 136 -3z m296 -33 c-29 -25 -61 -62 -72 -83 l-19 -36
-1 83 0 82 72 0 73 0 -53 -46z m268 20 c112 -47 171 -178 135 -301 -50 -173
-274 -234 -403 -110 -146 140 -83 378 113 428 38 10 109 2 155 -17z m987 -49
c6 -38 12 -76 12 -82 1 -10 -90 -13 -423 -13 l-424 0 -6 23 c-7 30 -81 114
-106 122 -66 21 15 25 457 23 l478 -3 12 -70z m-2040 -313 c17 -27 48 -62 69
-77 22 -16 43 -33 49 -37 5 -4 -224 -8 -508 -8 l-517 0 0 39 c0 21 3 59 6 85
l7 46 432 0 432 0 30 -48z m2083 -36 c3 -48 1 -80 -5 -82 -5 -2 -236 -3 -513
-2 l-502 3 47 35 c28 21 58 55 73 83 l25 47 435 -2 435 -3 5 -79z m-1598 -78
c-5 -5 -39 -8 -76 -6 l-68 3 45 32 c25 17 58 53 74 80 l28 48 3 -74 c2 -41 -1
-78 -6 -83z m286 51 c21 -19 47 -39 58 -46 16 -10 6 -12 -58 -12 l-78 -1 0 83
1 82 19 -36 c10 -19 36 -51 58 -70z m-2334 66 c235 -112 -234 -482 -794 -627
-136 -36 -339 -49 -406 -28 -94 30 -119 97 -66 181 34 52 122 134 204 191 l60
40 59 -27 c124 -55 256 -68 381 -36 164 42 294 138 370 274 l33 58 61 -4 c33
-2 77 -12 98 -22z m4635 -32 c0 -5 -30 -73 -67 -153 l-68 -145 -109 3 c-61 2
-130 -1 -155 -7 -24 -5 -46 -8 -49 -5 -2 2 12 57 33 122 20 64 36 122 36 128
0 23 29 35 116 48 97 15 264 21 263 9z m229 -24 c30 -7 52 -18 52 -25 0 -17
-30 -93 -87 -222 -35 -78 -50 -102 -61 -97 -9 3 -63 18 -121 32 -58 14 -108
28 -110 29 -2 2 22 59 54 126 32 68 64 137 71 154 l13 31 68 -9 c37 -4 92 -13
121 -19z m182 -61 c130 -55 129 -55 110 -100 -5 -13 -32 -81 -60 -152 -28 -71
-53 -133 -56 -137 -4 -7 -200 75 -218 92 -5 5 -5 13 1 21 6 7 37 76 68 153 32
77 59 144 62 148 5 9 30 3 93 -25z m-4930 -114 c16 -54 43 -134 60 -177 l30
-78 -21 -40 c-20 -39 -142 -169 -159 -169 -11 0 -31 32 -105 172 -36 69 -65
131 -65 140 0 8 35 44 78 80 42 36 93 90 112 120 19 31 36 54 38 53 1 -1 15
-46 32 -101z m5163 -19 c124 -94 130 -100 122 -126 -23 -75 -109 -289 -116
-289 -5 0 -41 22 -81 49 -40 26 -88 56 -105 65 -18 9 -33 19 -33 22 0 3 17 46
39 97 21 51 51 125 66 165 16 39 30 72 32 72 2 0 36 -25 76 -55z m-3225 -127
l-3 -83 -699 -3 c-385 -1 -702 1 -706 5 -3 5 -4 43 -2 86 l4 77 704 0 705 0
-3 -82z m1610 0 l-3 -83 -702 -3 -703 -2 0 85 0 85 705 0 706 0 -3 -82z m815
15 c7 -4 -16 -51 -125 -250 -37 -68 -41 -72 -66 -66 -15 4 -77 7 -138 8 l-111
0 32 70 c17 39 45 103 60 143 32 82 39 87 135 102 51 8 196 3 213 -7z m187
-40 c47 -13 89 -28 93 -33 8 -7 -113 -259 -146 -304 -13 -17 -16 -17 -95 8
-46 14 -101 29 -123 32 -21 4 -42 10 -44 14 -3 4 31 75 75 156 44 82 80 153
80 157 0 10 55 0 160 -30z m-4799 -65 c23 -46 61 -117 85 -159 24 -42 44 -80
44 -85 0 -8 -51 -42 -177 -116 l-32 -19 -26 41 c-34 54 -145 274 -145 288 0 6
31 27 68 47 38 19 84 47 103 60 19 13 35 24 36 25 2 0 21 -37 44 -82z m5696
-70 c41 -59 41 -59 26 -96 -21 -50 -92 -191 -111 -220 l-15 -24 -23 38 c-13
21 -46 61 -74 90 l-51 51 51 126 c27 70 50 128 50 131 0 3 5 17 10 32 l10 26
43 -47 c23 -26 61 -74 84 -107z m-629 40 c50 -22 92 -43 92 -45 0 -9 -128
-265 -149 -300 l-20 -32 -105 49 c-58 28 -110 50 -116 50 -15 0 -13 3 21 62
17 28 55 101 85 161 63 124 44 119 192 55z m-5312 -100 c20 -40 58 -112 85
-160 27 -49 49 -90 49 -93 0 -7 -85 -48 -164 -79 -57 -23 -71 -25 -82 -14 -18
18 -118 212 -144 276 -19 51 -19 54 -3 59 10 2 61 22 113 43 52 21 98 39 102
39 4 1 24 -31 44 -71z m672 -80 l72 -151 -23 -51 c-13 -28 -45 -73 -70 -101
l-47 -50 -18 23 c-10 13 -54 82 -96 152 l-78 128 80 79 c43 43 82 89 86 101 4
12 10 22 14 22 4 -1 40 -69 80 -152z m4892 39 c41 -27 78 -53 83 -57 4 -3 -2
-29 -14 -56 -28 -63 -149 -284 -156 -284 -3 0 -22 13 -42 29 -20 16 -68 49
-108 75 l-72 46 32 58 c18 31 57 105 86 164 l53 107 32 -16 c17 -9 65 -38 106
-66z m-5846 -29 c9 -24 45 -97 81 -163 36 -66 63 -125 61 -131 -4 -10 -139
-46 -222 -59 l-39 -7 -41 74 c-41 74 -124 251 -124 266 0 4 34 14 75 21 41 7
94 18 118 26 67 21 73 19 91 -27z m2714 -40 l3 -78 -711 0 -710 0 0 73 c0 41
3 77 7 80 3 4 322 6 707 5 l701 -3 3 -77z m1610 0 l3 -78 -706 0 -705 0 0 74
c0 50 4 76 13 79 6 3 323 4 702 4 l690 -2 3 -77z m-4813 22 c33 -5 86 -6 117
-3 l58 6 16 -39 c9 -21 45 -96 80 -167 35 -70 64 -132 64 -138 0 -15 -197 -6
-231 10 -25 12 -112 155 -189 310 l-22 44 24 -7 c12 -4 50 -11 83 -16z m5445
-17 c6 -6 -128 -234 -173 -293 -10 -14 -31 -15 -134 -10 l-121 5 77 143 c43
78 81 145 84 148 15 16 81 22 167 17 52 -3 97 -7 100 -10z m183 -45 c59 -17
107 -34 107 -39 0 -9 -45 -82 -143 -232 -28 -43 -56 -76 -62 -73 -39 15 -177
55 -208 61 -20 4 -37 9 -37 12 0 2 17 30 38 61 21 31 64 100 96 153 49 83 60
96 79 92 12 -3 70 -18 130 -35z m868 -15 c45 -48 73 -89 87 -129 9 -29 6 -39
-37 -110 -71 -119 -145 -234 -151 -234 -4 0 -11 15 -18 33 -6 17 -34 59 -61
91 l-49 60 23 35 c12 20 52 93 89 164 37 70 71 127 75 127 4 0 23 -17 42 -37z
m-5236 -130 l93 -148 -23 -21 c-37 -34 -174 -116 -186 -112 -10 3 -199 296
-199 309 0 3 17 14 38 23 21 10 69 37 108 61 38 24 70 42 72 40 2 -2 46 -70
97 -152z m4634 47 l103 -50 -28 -48 c-23 -40 -171 -271 -179 -280 -2 -2 -210
104 -223 114 -2 1 21 40 50 86 30 46 74 116 99 155 25 41 51 73 60 73 9 0 62
-23 118 -50z m-4225 -287 c-14 -56 -81 -163 -103 -163 -8 0 -114 143 -154 206
l-26 41 44 43 c25 24 57 67 72 96 l27 53 73 -125 c60 -102 72 -129 67 -151z
m-678 147 c32 -52 75 -120 96 -150 l37 -55 -33 -17 c-51 -26 -185 -78 -201
-78 -17 0 -219 301 -208 310 5 4 37 17 73 30 36 13 87 34 115 47 27 12 52 19
56 15 3 -4 32 -50 65 -102z m5115 21 c41 -27 87 -60 102 -73 l29 -23 -73 -110
c-39 -61 -92 -136 -116 -168 l-45 -58 -56 49 c-31 27 -76 61 -99 77 -25 16
-40 32 -36 39 4 6 32 49 63 96 30 47 73 115 95 152 22 37 45 68 51 68 6 0 45
-22 85 -49z m-5425 -63 c15 -24 61 -94 102 -157 53 -80 71 -115 63 -121 -7 -4
-64 -19 -127 -35 -91 -22 -117 -25 -129 -15 -21 17 -209 299 -203 305 2 3 38
11 79 19 41 8 94 21 119 29 65 22 67 21 96 -25z m4542 -6 c21 -7 17 -14 -69
-135 -85 -120 -93 -129 -117 -123 -15 4 -64 9 -109 13 -46 3 -83 7 -83 9 0 2
34 55 75 118 61 92 81 116 103 119 43 6 175 6 200 -1z m-4945 -20 l78 2 54
-87 c30 -47 77 -118 105 -157 60 -84 59 -85 -70 -78 -125 7 -137 17 -247 182
-51 77 -93 142 -93 146 0 4 21 3 48 -2 26 -5 82 -8 125 -6z m3236 -196 l203
-204 -122 -121 c-108 -107 -127 -121 -149 -116 -34 7 -82 -37 -118 -109 l-25
-49 -18 40 c-9 22 -36 58 -58 82 -32 33 -45 41 -63 36 -21 -5 -43 12 -148 116
l-123 122 203 203 c112 112 206 204 209 204 3 0 97 -92 209 -204z m1911 167
c46 -16 85 -33 87 -39 5 -17 -183 -269 -199 -267 -7 1 -56 18 -108 38 -52 20
-101 38 -108 40 -8 3 9 35 51 92 35 49 77 108 93 131 26 41 30 44 64 38 19 -3
73 -18 120 -33z m-3993 -71 c34 -48 74 -104 90 -126 l28 -38 -45 -40 c-62 -56
-141 -108 -153 -101 -16 10 -188 245 -185 253 3 7 187 136 198 139 3 0 33 -39
67 -87z m4872 21 c22 -27 48 -68 56 -92 l15 -44 -58 -80 c-77 -107 -185 -240
-198 -244 -6 -2 -14 13 -17 34 -4 21 -22 61 -42 90 -19 29 -35 55 -35 58 0 4
20 32 43 63 24 31 75 103 112 160 37 56 72 102 76 102 4 0 26 -21 48 -47z
m-638 -55 c55 -28 99 -55 99 -60 0 -11 -140 -197 -187 -249 l-34 -37 -87 54
c-48 29 -93 57 -101 62 -10 6 8 37 79 132 51 69 94 131 97 138 9 21 32 14 134
-40z m-3887 -72 c71 -103 77 -117 71 -148 -8 -37 -52 -123 -71 -138 -11 -10
-81 65 -168 182 l-28 38 30 37 c34 44 72 112 72 130 0 29 20 7 94 -101z m-540
-90 c72 -97 94 -131 84 -138 -42 -29 -192 -99 -203 -94 -14 5 -215 252 -215
264 0 4 33 20 73 35 39 16 88 37 107 47 19 11 40 18 46 17 6 -1 55 -60 108
-131z m4656 16 c46 -37 85 -72 87 -77 3 -11 -88 -126 -183 -228 l-64 -70 -73
68 c-39 38 -78 74 -84 80 -10 8 1 28 48 85 33 41 83 105 111 143 27 37 55 67
62 67 7 0 50 -30 96 -68z m-907 27 l57 -12 -30 -40 c-16 -22 -65 -83 -110
-137 l-80 -98 -47 14 c-25 8 -70 14 -100 14 -29 0 -53 2 -53 5 0 3 45 64 101
135 l101 130 52 0 c29 0 78 -5 109 -11z m-3999 -157 c59 -74 106 -135 104
-137 -7 -6 -127 -45 -181 -59 l-57 -15 -44 47 c-75 81 -198 233 -193 239 3 2
43 13 89 23 45 10 94 23 108 29 50 20 64 10 174 -127z m4201 97 c58 -22 105
-46 105 -52 0 -11 -163 -213 -213 -264 l-22 -23 -100 51 c-55 28 -102 53 -104
54 -3 3 59 83 95 121 5 6 35 44 65 83 29 39 57 71 61 71 4 0 55 -18 113 -41z
m-3526 -99 l92 -115 -77 -73 c-42 -40 -84 -72 -92 -70 -15 3 -150 149 -191
207 l-20 28 92 71 c51 38 95 70 98 69 3 -1 47 -54 98 -117z m-1171 71 c90 2
93 1 115 -27 49 -63 166 -200 186 -218 35 -31 27 -46 -26 -48 -70 -3 -102 -2
-156 6 -46 7 -51 11 -140 119 -92 111 -137 170 -137 180 0 3 15 1 33 -4 17 -5
74 -9 125 -8z m1442 -78 c30 -38 69 -85 88 -107 31 -35 34 -43 28 -80 -4 -22
-18 -66 -32 -96 l-25 -55 -47 52 c-26 28 -73 81 -105 116 l-57 65 35 52 c19
29 38 64 41 79 7 26 13 41 18 41 1 0 27 -30 56 -67z m3570 -65 l23 -17 -28
-33 c-67 -79 -250 -268 -261 -268 -6 0 -19 10 -30 21 -10 12 -45 41 -76 66
l-58 44 93 107 c50 59 107 126 125 149 l33 42 78 -47 c43 -26 88 -55 101 -64z
m552 24 c14 -26 28 -63 32 -83 7 -39 -5 -55 -188 -247 l-70 -73 -21 63 c-11
35 -30 77 -41 93 l-21 29 101 115 c56 64 112 131 125 149 21 31 24 32 41 17 9
-8 28 -37 42 -63z m-4632 -72 c30 -36 74 -86 99 -112 52 -55 57 -48 -66 -118
-68 -38 -74 -40 -95 -26 -37 24 -221 226 -213 234 3 4 50 30 103 57 68 36 100
48 108 40 6 -5 34 -39 64 -75z m4209 -58 c39 -37 71 -74 71 -83 0 -9 -46 -58
-102 -110 -56 -52 -113 -105 -127 -118 -15 -13 -42 -36 -62 -51 l-35 -29 -50
66 c-27 36 -53 71 -58 78 -7 10 27 52 127 155 75 78 137 146 137 151 0 23 34
3 99 -59z m-890 47 c28 -6 53 -14 55 -18 3 -4 -53 -67 -122 -140 l-127 -134
-67 26 c-36 15 -74 27 -82 27 -25 0 -19 11 40 75 30 33 78 86 106 118 49 54
53 57 99 57 26 0 71 -5 98 -11z m-2860 -126 c50 -56 91 -106 91 -111 0 -6 -31
-43 -69 -84 l-70 -73 -115 115 c-64 63 -116 119 -116 125 0 5 18 23 39 39 22
16 59 48 82 72 34 35 46 41 55 32 6 -7 52 -59 103 -115z m-587 -174 c-31 -15
-79 -34 -105 -43 l-49 -16 -106 99 c-148 137 -168 159 -151 165 8 2 61 19 119
38 l105 34 122 -125 122 -126 -57 -26z m3635 230 c45 -22 87 -46 92 -53 8 -10
-24 -48 -130 -154 -78 -78 -145 -142 -150 -142 -10 0 -153 102 -158 114 -2 5
39 54 92 110 52 56 107 116 122 134 15 18 32 32 38 32 6 0 48 -18 94 -41z
m-2657 -224 c0 -46 -14 -104 -32 -128 -12 -15 -25 -5 -123 87 l-109 103 27 60
c15 33 30 74 33 91 l6 31 99 -102 c90 -94 98 -105 99 -142z m-1522 185 l87 5
138 -130 137 -130 -47 -12 c-27 -6 -82 -12 -125 -12 l-76 -1 -136 136 c-75 75
-136 140 -136 144 0 4 16 4 36 1 20 -3 75 -4 122 -1z m2422 -270 c6 0 10 51
10 125 0 69 4 125 9 125 19 0 72 -87 91 -148 11 -34 23 -99 26 -142 l7 -80
-75 0 -75 0 -13 43 c-16 56 -53 127 -84 164 l-25 30 21 34 c11 19 36 51 56 72
l37 38 3 -130 c1 -76 7 -131 12 -131z m376 134 c4 -14 -7 -39 -34 -78 -22 -31
-48 -83 -58 -116 l-18 -60 -53 0 -53 0 0 43 c0 23 -5 70 -10 105 -9 55 -8 68
10 109 24 54 66 113 81 113 6 0 10 -17 9 -37 -5 -101 1 -214 10 -208 6 4 10
60 10 133 l1 127 50 -55 c27 -30 52 -64 55 -76z m1588 38 c38 -31 71 -62 73
-68 7 -20 -296 -295 -322 -292 -5 0 -36 29 -68 63 l-59 63 149 146 c81 80 150
145 153 145 3 0 36 -26 74 -57z m623 2 c25 -44 45 -123 35 -140 -17 -28 -330
-294 -346 -294 -3 0 -6 12 -6 28 0 15 -12 54 -25 87 l-25 60 73 65 c39 36 113
104 162 152 50 48 95 86 100 84 6 -1 20 -20 32 -42z m-4064 -82 c64 -64 117
-120 117 -124 0 -3 -32 -29 -70 -58 l-70 -52 -68 55 c-37 30 -98 84 -137 119
l-70 65 85 56 c47 30 87 56 90 56 3 1 58 -52 123 -117z m1281 48 c81 -55 155
-166 156 -234 0 -28 0 -29 -46 -22 -26 3 -55 6 -64 6 -13 0 -19 11 -23 42 -7
53 -66 171 -111 225 -20 22 -36 44 -36 47 0 9 69 -27 124 -64z m742 20 c-40
-44 -100 -161 -116 -226 -9 -38 -14 -42 -48 -48 -20 -3 -50 -6 -66 -6 -26 0
-28 2 -22 28 15 62 68 152 115 194 46 42 161 111 170 103 2 -3 -13 -23 -33
-45z m-1504 -254 c-4 -14 -59 -89 -87 -119 l-26 -27 -47 37 c-26 21 -81 67
-122 102 -41 36 -77 66 -79 68 -2 1 30 38 70 82 l74 80 109 -107 c61 -59 109
-111 108 -116z m2235 194 c31 -11 61 -24 66 -29 5 -5 -41 -52 -108 -111 -153
-137 -153 -136 -179 -120 -11 8 -43 26 -69 40 l-48 27 43 36 c24 19 77 67 118
106 46 43 84 70 98 71 12 0 48 -9 79 -20z m-1973 -178 c12 -20 14 -139 3 -165
-8 -20 -27 -7 -163 110 l-62 53 19 61 c10 33 19 74 19 91 0 29 2 28 88 -52 48
-45 91 -89 96 -98z m-1044 112 c25 -25 82 -78 128 -117 l83 -71 -23 -17 c-12
-10 -49 -30 -81 -45 -53 -26 -60 -27 -82 -13 -39 23 -285 220 -285 227 0 8
177 79 200 81 9 0 36 -20 60 -45z m3870 -31 c28 -36 50 -71 50 -77 -1 -17
-346 -276 -367 -276 -4 0 -24 31 -44 68 l-36 68 85 70 c46 38 121 103 166 145
44 42 84 75 89 72 4 -2 30 -34 57 -70z m-662 -3 c40 -28 72 -56 72 -63 -1 -13
-143 -135 -248 -213 l-63 -47 -57 63 c-31 35 -58 66 -60 70 -1 3 26 30 60 59
35 30 94 82 131 117 38 35 74 64 81 64 7 0 45 -23 84 -50z m-3448 -49 c25 -20
54 -44 65 -54 11 -10 57 -46 103 -80 45 -34 82 -64 82 -68 0 -11 -134 -39
-187 -39 -43 0 -56 6 -129 63 -45 34 -115 91 -157 127 l-76 65 87 7 c48 4 101
12 117 16 35 10 35 10 95 -37z m686 -32 c16 -17 69 -63 117 -102 l89 -72 -48
-43 c-77 -70 -66 -72 -206 33 -69 51 -128 97 -132 103 -6 10 120 111 140 112
5 0 23 -14 40 -31z m2928 -60 c31 -33 56 -63 56 -68 0 -13 -323 -241 -365
-257 -10 -4 -18 3 -24 19 -6 15 -21 44 -35 65 l-25 40 102 78 c55 44 128 103
161 132 34 28 64 52 67 52 4 0 32 -27 63 -61z m-2173 -56 l121 -98 -6 -65 c-4
-36 -11 -68 -15 -73 -4 -4 -57 27 -118 70 l-111 77 1 93 c1 51 3 93 4 93 2 0
57 -44 124 -97z m2763 40 c21 -63 21 -126 -1 -145 -26 -23 -247 -169 -319
-210 l-61 -36 -7 62 c-4 33 -8 72 -9 85 -2 21 18 39 125 115 69 50 153 112
185 137 32 25 61 45 65 43 3 -2 13 -25 22 -51z m-3041 -43 c59 -47 107 -92
107 -101 0 -12 -60 -122 -75 -137 -4 -4 -59 32 -183 121 l-82 59 38 46 c22 26
47 60 57 75 10 15 21 26 25 25 3 -2 55 -41 113 -88z m1811 52 c27 -15 51 -32
53 -38 4 -13 -85 -87 -200 -164 l-77 -52 -48 43 c-26 24 -48 46 -49 49 -1 3
41 37 93 75 52 39 105 80 116 93 28 29 52 28 112 -6z m-544 -12 c0 -34 -51
-40 -324 -39 -144 1 -272 4 -286 8 -15 4 -26 15 -28 28 -3 21 -3 21 317 21
304 0 321 0 321 -18z m-1822 -114 c93 -70 129 -103 122 -111 -20 -24 -112 -67
-132 -62 -22 6 -288 179 -288 187 0 6 153 89 160 87 3 -1 65 -47 138 -101z
m2487 39 c30 -23 85 -92 85 -107 0 -6 -216 -148 -291 -192 l-47 -27 -36 66
c-20 36 -36 68 -36 70 0 2 39 31 88 64 48 33 112 81 142 105 30 25 56 45 58
46 2 0 18 -11 37 -25z m-667 -9 c-2 -12 -13 -23 -28 -27 -39 -11 -555 -10
-584 1 -15 5 -26 17 -26 28 0 18 14 19 321 19 318 0 320 0 317 -21z m1302 -56
c16 -33 30 -63 30 -68 0 -13 -399 -252 -422 -252 -6 0 -31 120 -26 125 2 1 57
39 123 83 66 44 147 101 180 126 33 25 66 46 72 46 7 0 26 -27 43 -60z m-3291
-73 l144 -97 -35 -14 c-19 -8 -64 -22 -100 -31 l-64 -17 -131 82 c-72 45 -145
94 -164 109 l-33 28 46 1 c25 1 72 11 104 21 33 11 66 18 74 17 8 -2 80 -47
159 -99z m665 -36 l78 -53 -45 -46 -46 -46 -36 17 c-50 24 -265 159 -265 166
1 3 29 27 63 53 l61 46 56 -42 c30 -24 90 -66 134 -95z m695 120 c10 -6 4 -15
-23 -37 -88 -69 -158 -197 -178 -321 -32 -209 91 -439 284 -532 81 -38 135
-50 223 -51 328 -1 571 299 504 622 -19 90 -67 177 -140 251 -66 66 -67 67
-41 74 22 5 33 -2 81 -53 101 -108 151 -233 152 -379 1 -129 -29 -223 -106
-330 -123 -173 -351 -259 -567 -214 -246 51 -437 288 -438 544 0 129 65 287
157 381 54 54 67 61 92 45z m644 -71 c179 -167 210 -430 74 -632 -110 -164
-317 -249 -510 -209 -185 39 -338 188 -382 372 -20 86 -19 141 5 234 28 110
91 207 173 266 l40 29 268 0 268 0 64 -60z m-1027 -27 c127 -85 122 -76 77
-166 -13 -27 -27 -47 -32 -45 -22 9 -199 111 -219 126 l-23 18 38 72 c21 39
40 72 42 72 2 0 54 -35 117 -77z m218 43 c18 -15 17 -17 -12 -61 -17 -26 -33
-52 -35 -58 -3 -8 -8 -9 -16 -2 -7 8 -8 21 -1 45 6 19 10 52 10 73 0 40 5 41
54 3z m1038 -19 c56 -43 58 -58 11 -82 -21 -11 -41 -19 -45 -20 -4 0 -21 22
-39 49 l-31 50 24 18 c30 23 30 23 80 -15z m574 -69 c13 -26 24 -49 24 -52 0
-12 -346 -196 -368 -196 -9 0 -42 77 -42 95 0 6 40 34 88 62 49 29 124 77 167
107 90 62 92 62 131 -16z m-2331 -51 c77 -47 140 -91 140 -98 0 -7 -19 -27
-43 -43 l-42 -30 -68 33 c-101 50 -262 141 -262 149 0 11 114 81 125 77 6 -1
73 -41 150 -88z m2869 52 c3 -17 6 -55 6 -83 l0 -51 -87 -47 c-88 -46 -365
-168 -383 -168 -6 0 -6 9 0 26 6 14 10 43 10 65 0 21 4 39 8 39 11 0 313 173
377 216 27 19 53 34 56 34 4 0 9 -14 13 -31z m-990 -91 l27 -47 -60 -31 c-33
-16 -64 -30 -69 -30 -5 0 -16 26 -26 58 -9 31 -19 62 -21 67 -3 6 16 22 43 37
55 31 59 29 106 -54z m-1994 -70 c69 -37 128 -68 132 -68 38 0 -46 -48 -114
-65 -30 -8 -145 40 -308 128 l-94 51 49 11 c28 6 70 21 95 32 l45 21 35 -21
c19 -11 91 -51 160 -89z m533 42 c64 -36 116 -69 117 -74 0 -15 -50 -76 -63
-76 -11 0 -256 116 -266 125 -8 8 71 96 84 93 7 -2 65 -32 128 -68z m237 63
c0 -27 -36 -143 -45 -143 -34 1 -35 17 -4 83 27 58 49 84 49 60z m1729 -77
c20 -79 34 -68 -229 -182 -155 -68 -153 -68 -163 -1 l-6 37 122 60 c67 33 151
77 187 99 36 21 68 37 71 35 4 -2 12 -24 18 -48z m-2066 -92 c72 -37 134 -68
136 -70 7 -7 -61 -74 -75 -74 -10 0 -107 41 -259 110 l-49 23 24 16 c13 9 36
26 50 38 14 12 28 23 33 23 4 0 67 -30 140 -66z m1621 16 c9 -22 16 -44 16
-49 0 -10 -152 -71 -176 -71 -10 0 -13 12 -11 47 l3 48 64 32 c36 17 70 32 76
32 7 1 19 -17 28 -39z m-1349 -2 c22 -10 25 -17 25 -65 0 -29 -2 -53 -4 -53
-6 0 -100 40 -104 45 -4 3 48 85 54 85 2 0 15 -5 29 -12z m1801 -73 c-9 -73
-18 -81 -118 -114 -107 -34 -239 -71 -257 -71 -8 0 -11 11 -9 31 3 30 8 34
118 79 63 25 147 63 185 83 39 20 74 36 79 37 5 0 6 -20 2 -45z m-2268 1 c37
-18 103 -48 147 -66 44 -18 84 -36 88 -40 4 -4 -13 -18 -38 -31 l-45 -24 -175
60 c-96 32 -175 61 -175 65 0 4 97 56 128 69 1 0 33 -14 70 -33z m1847 -40
c12 -63 8 -68 -110 -107 -61 -20 -111 -34 -113 -30 -1 3 4 26 11 50 12 43 14
45 102 81 50 21 93 38 97 39 4 0 10 -14 13 -33z m-1409 -10 c58 -24 59 -25 67
-71 4 -26 6 -49 4 -52 -5 -4 -206 62 -215 71 -7 8 58 76 73 76 6 0 38 -11 71
-24z m-27 -116 c101 -33 145 -59 128 -76 -5 -5 -214 36 -301 59 l-48 13 38 26
c22 15 46 24 54 21 8 -3 66 -22 129 -43z m1442 17 c-1 -4 -1 -16 -1 -27 0 -14
-10 -22 -38 -29 -66 -18 -204 -42 -209 -37 -16 16 16 35 103 60 55 15 106 32
114 37 17 9 32 7 31 -4z m-1152 -358 c124 -22 252 -72 329 -129 l44 -31 32 24
c60 46 175 98 273 123 107 27 297 41 372 27 l44 -8 162 -335 c90 -184 161
-338 158 -343 -2 -4 -9 -5 -14 -2 -5 4 -9 1 -9 -4 0 -6 8 -11 18 -11 13 0 24
-17 40 -68 12 -37 36 -89 52 -116 17 -27 30 -49 28 -51 -2 -1 -57 -8 -123 -14
-355 -37 -630 -117 -838 -244 -26 -16 -49 -28 -50 -26 -1 2 -8 13 -14 24 -7
11 -26 46 -43 78 -16 32 -39 70 -50 84 -36 46 -40 41 121 126 209 111 467 186
699 206 73 6 136 14 139 17 7 7 -148 -4 -249 -18 -190 -26 -430 -105 -609
-200 -53 -28 -100 -54 -105 -59 -6 -5 -14 -9 -18 -9 -4 0 -8 169 -8 376 0 206
-4 373 -8 370 -5 -3 -7 -83 -5 -178 5 -215 -9 -606 -22 -616 -6 -4 -30 -45
-54 -92 -62 -121 -58 -118 -127 -74 -176 113 -486 202 -814 235 -69 7 -126 13
-128 14 -2 2 13 31 32 66 19 35 42 88 51 117 13 37 22 52 36 52 10 0 21 5 25
11 4 8 0 9 -15 4 -11 -3 -21 -2 -21 3 0 8 267 561 313 649 14 27 24 33 59 36
59 6 228 -2 297 -14z m416 -95 c-16 -13 -34 -24 -39 -24 -8 0 -76 39 -76 44 0
1 33 2 73 3 l72 1 -30 -24z m2 -961 c21 -38 40 -72 42 -78 2 -5 15 -27 28 -47
l25 -38 -29 -27 c-17 -16 -38 -43 -47 -60 -29 -56 -90 -56 -125 0 -11 18 -32
45 -46 61 -14 16 -25 30 -25 32 0 1 21 38 48 82 26 44 55 94 64 111 9 17 19
31 22 31 2 0 22 -30 43 -67z"/>
<path d="M7573 12745 c-224 -49 -393 -246 -410 -480 -17 -236 138 -464 366
-536 99 -31 234 -30 327 3 265 94 410 362 343 633 -34 136 -151 277 -279 338
-117 55 -227 68 -347 42z m217 -25 c253 -48 434 -311 390 -568 -56 -334 -419
-519 -720 -367 -101 51 -169 119 -220 218 -75 149 -76 298 -3 453 34 71 137
178 209 217 100 52 224 70 344 47z"/>
<path d="M7660 12641 c-24 -7 -25 -9 -22 -84 l3 -77 -83 -1 c-138 -1 -142 -2
-146 -24 -3 -11 -10 -24 -18 -30 -7 -5 -15 -37 -18 -70 -6 -86 -13 -98 -47
-91 -21 4 -29 2 -29 -9 0 -18 41 -106 58 -123 6 -7 12 -20 12 -29 0 -21 33
-63 113 -146 37 -39 67 -73 67 -77 0 -10 65 -70 76 -70 6 0 16 11 22 25 11 25
32 34 32 15 0 -5 14 -10 30 -10 21 0 30 5 31 18 8 105 9 102 -23 118 -40 21
-26 32 42 36 l55 3 -3 33 c-4 41 1 40 29 -4 21 -34 24 -36 70 -32 27 1 49 0
49 -4 0 -5 13 -8 29 -8 30 0 57 22 47 39 -4 5 2 16 12 23 15 11 18 29 19 111
l0 99 -33 21 c-37 24 -44 56 -19 77 9 7 25 26 36 42 20 27 20 30 4 63 -9 20
-27 43 -41 52 -24 16 -28 15 -61 -2 -44 -24 -55 -10 -46 63 l6 52 -101 0 c-55
0 -106 2 -114 4 -7 2 -24 1 -38 -3z m137 -31 l81 0 -3 -65 -4 -65 36 0 c20 0
44 7 53 15 22 20 46 10 64 -25 13 -27 12 -31 -19 -68 -18 -21 -36 -54 -39 -73
-6 -32 -4 -35 32 -52 l39 -17 -3 -82 c-1 -44 -7 -84 -12 -87 -5 -3 -13 -17
-17 -30 l-8 -25 -17 22 c-17 21 -18 21 -35 2 -27 -30 -56 -24 -92 17 -27 32
-34 36 -50 27 -10 -7 -18 -23 -19 -40 0 -28 -12 -34 -49 -24 -5 1 -22 2 -37 1
-26 -1 -28 -4 -28 -40 0 -33 4 -40 24 -45 20 -5 23 -11 21 -38 -2 -29 -6 -33
-33 -33 -16 0 -39 -8 -49 -17 -19 -17 -20 -17 -41 5 -12 13 -22 27 -23 33 0 5
-18 23 -40 41 -54 43 -126 132 -134 166 -4 15 -11 30 -16 33 -8 5 -39 69 -39
80 0 2 8 4 18 4 24 0 42 52 42 118 0 40 4 52 15 52 15 0 19 11 16 38 -1 8 7
12 21 11 13 -1 65 -1 116 -1 l92 2 0 78 c0 43 3 82 7 86 4 4 17 5 28 2 11 -3
57 -6 102 -6z"/>
<path d="M7593 12317 c-28 -28 -29 -40 -3 -32 18 6 20 2 20 -54 0 -48 3 -61
15 -61 12 0 15 16 15 85 0 92 -7 102 -47 62z"/>
<path d="M7690 12255 c0 -67 3 -85 14 -85 10 0 16 13 18 38 3 35 5 37 37 37
19 0 36 6 38 13 3 8 -8 12 -36 12 -37 0 -41 2 -41 25 0 23 4 25 45 25 25 0 45
5 45 10 0 6 -27 10 -60 10 l-60 0 0 -85z"/>
<path d="M13336 12319 c-12 -61 -9 -70 18 -57 33 14 58 4 54 -23 -5 -33 -36
-48 -52 -26 -7 9 -18 17 -25 17 -14 0 -14 -6 -1 -31 16 -29 75 -26 96 6 28 44
-4 96 -53 87 -7 -2 -13 4 -13 13 0 11 10 15 35 15 24 0 35 5 35 15 0 11 -12
15 -44 15 -41 0 -44 -2 -50 -31z"/>
<path d="M13460 12265 c0 -69 3 -85 15 -85 11 0 15 11 15 38 0 36 1 37 37 37
20 0 38 6 40 13 3 8 -8 12 -36 12 -37 0 -41 2 -41 25 0 23 3 25 42 23 26 -2
43 2 45 10 4 9 -12 12 -56 12 l-61 0 0 -85z"/>
<path d="M10140 12120 c-15 -29 -4 -59 26 -66 34 -9 56 12 52 50 -3 27 -7 31
-35 34 -24 2 -34 -2 -43 -18z"/>
<path d="M10860 12120 c-27 -50 32 -92 72 -52 20 20 20 22 4 46 -20 32 -61 35
-76 6z"/>
<path d="M9870 8703 c19 -1 84 -8 143 -13 132 -13 316 -59 398 -100 66 -33 92
-39 69 -16 -19 19 -148 70 -226 91 -98 26 -244 45 -334 43 -47 -1 -69 -3 -50
-5z"/>
<path d="M11020 8699 c-149 -19 -372 -87 -410 -124 -19 -20 3 -20 33 -1 79 52
309 108 507 124 l105 9 -85 0 c-47 0 -114 -3 -150 -8z"/>
<path d="M9820 8623 c0 -6 52 -13 118 -17 173 -10 349 -50 470 -108 64 -31 94
-33 49 -4 -64 42 -241 96 -382 115 -124 17 -255 24 -255 14z"/>
<path d="M11112 8619 c-128 -11 -291 -47 -397 -88 -87 -34 -112 -47 -104 -55
3 -3 46 12 95 33 120 52 299 92 447 98 64 3 117 10 117 14 0 10 -11 10 -158
-2z"/>
<path d="M10536 8585 c-3 -8 -1 -15 4 -15 6 0 10 7 10 15 0 8 -2 15 -4 15 -2
0 -6 -7 -10 -15z"/>
<path d="M9790 8533 c0 -6 50 -13 113 -16 180 -9 405 -62 514 -122 45 -24 70
-18 30 7 -32 21 -181 74 -257 92 -124 29 -400 55 -400 39z"/>
<path d="M11097 8525 c-183 -22 -325 -59 -430 -112 -76 -38 -49 -37 40 0 150
64 360 107 516 107 50 0 76 4 72 10 -8 13 -62 11 -198 -5z"/>
<path d="M9755 8446 c6 -3 66 -10 135 -16 206 -19 388 -65 509 -131 58 -31 82
-30 41 1 -55 41 -229 98 -383 125 -74 13 -323 30 -302 21z"/>
<path d="M11165 8443 c-89 -8 -266 -44 -341 -69 -92 -31 -194 -80 -194 -94 0
-5 30 6 68 24 131 66 308 110 502 127 63 5 122 11 130 13 20 5 -114 4 -165 -1z"/>
<path d="M9714 8359 c-2 -3 44 -9 101 -13 215 -14 437 -68 574 -141 66 -35 95
-38 51 -5 -55 42 -256 110 -400 136 -93 17 -320 33 -326 23z"/>
<path d="M11255 8359 c-231 -15 -433 -67 -593 -153 -60 -31 -26 -29 45 4 97
45 101 46 173 69 114 35 297 65 460 74 25 1 41 4 35 7 -5 3 -59 3 -120 -1z"/>
<path d="M9797 8255 c240 -25 407 -67 555 -141 95 -48 98 -49 98 -34 0 14
-151 84 -245 114 -120 39 -286 67 -420 71 l-120 4 132 -14z"/>
<path d="M11230 8264 c-14 -2 -59 -9 -100 -15 -158 -22 -406 -103 -474 -154
-43 -32 -4 -23 80 19 157 78 316 118 552 141 128 12 132 13 52 12 -47 0 -96
-1 -110 -3z"/>
<path d="M9626 8172 c-3 -5 41 -12 107 -15 235 -13 491 -83 635 -174 63 -40
82 -49 82 -35 0 26 -181 114 -325 158 -146 45 -484 90 -499 66z"/>
<path d="M11286 8169 c-197 -21 -382 -71 -526 -144 -47 -24 -94 -50 -105 -58
-31 -23 -10 -32 22 -9 146 103 431 186 680 199 62 3 110 10 107 14 -6 10 -68
10 -178 -2z"/>
<path d="M9550 8094 c0 -5 37 -10 81 -12 156 -6 375 -52 541 -115 71 -27 250
-108 258 -117 7 -7 79 -40 88 -40 29 0 -187 111 -311 159 -109 42 -286 90
-407 109 -99 16 -250 26 -250 16z"/>
<path d="M6296 11154 c-44 -29 -65 -49 -59 -55 6 -6 19 -6 37 1 15 5 44 10 65
10 33 0 45 -7 79 -44 47 -51 67 -85 55 -96 -4 -4 -91 -66 -193 -137 -305 -214
-303 -213 -352 -166 -41 39 -44 22 -6 -34 89 -134 140 -203 148 -203 13 0 13
6 -6 42 -31 60 -28 63 291 283 39 27 98 68 131 92 l62 43 36 -52 c19 -29 38
-67 42 -84 6 -33 -12 -80 -40 -103 -18 -15 -21 -41 -6 -41 12 0 134 88 138
101 5 12 -329 489 -342 489 -6 -1 -42 -21 -80 -46z"/>
<path d="M14627 10974 c-3 -4 -4 -18 -1 -33 5 -22 -4 -35 -65 -89 -55 -49 -78
-79 -108 -139 -35 -70 -38 -84 -38 -157 1 -97 29 -168 95 -240 140 -152 346
-177 495 -59 47 37 109 126 129 186 25 75 19 207 -10 207 -11 0 -14 -17 -14
-67 0 -86 -12 -129 -53 -190 -71 -107 -207 -138 -337 -77 -81 38 -167 116
-205 186 -24 43 -30 65 -30 119 0 56 5 73 30 114 17 27 50 63 74 80 37 26 51
30 109 30 37 0 80 -2 96 -5 52 -9 37 14 -42 64 -42 27 -86 55 -98 63 -11 7
-23 10 -27 7z"/>
<path d="M6727 10694 c-3 -4 0 -19 8 -35 19 -36 18 -49 -3 -74 -23 -28 -347
-311 -396 -347 -46 -33 -59 -34 -96 -8 -58 42 -36 1 56 -103 82 -92 114 -121
114 -103 0 3 -9 21 -21 40 -26 45 -21 52 97 155 86 75 93 79 108 63 14 -16 13
-35 -19 -217 -19 -110 -35 -204 -35 -210 0 -13 111 -137 117 -131 2 2 -1 21
-7 43 -10 32 -7 65 19 217 17 99 32 181 34 182 1 2 29 -10 61 -26 70 -36 117
-38 171 -7 58 33 85 78 85 144 0 75 -28 124 -155 273 -130 152 -130 152 -138
144z m150 -221 c79 -99 82 -153 15 -225 -61 -66 -139 -58 -228 25 l-57 53 104
91 c57 51 111 92 120 92 9 1 29 -16 46 -36z"/>
<path d="M14228 10421 c-13 -16 -59 -68 -102 -115 -43 -48 -76 -89 -73 -92 3
-3 23 6 45 21 36 24 43 25 65 13 26 -13 375 -324 414 -368 28 -31 28 -46 3
-88 -22 -36 -24 -42 -11 -42 13 0 215 230 208 236 -3 4 -18 -3 -33 -15 -54
-43 -56 -42 -310 189 -82 74 -159 145 -171 158 -26 26 -29 68 -8 96 33 44 8
50 -27 7z"/>
<path d="M7170 10174 c0 -3 9 -17 20 -31 38 -49 45 -39 -208 -313 -79 -85
-155 -163 -170 -172 -25 -17 -28 -16 -60 3 -61 35 -49 9 29 -64 94 -89 297
-276 326 -301 22 -18 23 -18 98 28 78 49 96 73 48 62 -89 -20 -131 -19 -170 4
-69 42 -183 150 -183 173 1 14 38 61 95 122 l94 100 28 -26 c151 -138 156
-146 129 -200 -39 -78 -8 -64 88 39 83 89 92 122 21 81 -36 -22 -38 -22 -69
-5 -17 10 -62 46 -100 80 l-68 63 88 96 c49 54 94 97 99 97 6 0 51 -40 102
-88 102 -98 115 -124 89 -180 -13 -26 -14 -38 -6 -46 8 -8 15 -6 25 8 8 10 30
35 49 56 l36 39 -68 64 c-275 261 -362 336 -362 311z"/>
<path d="M7431 10061 c-54 -10 -21 -26 104 -49 114 -21 145 -18 145 16 0 35
-21 42 -119 41 -53 -1 -111 -4 -130 -8z"/>
<path d="M13715 9909 c-120 -107 -130 -117 -123 -125 4 -3 20 2 37 12 23 14
37 16 56 9 31 -12 393 -410 401 -442 4 -14 -2 -33 -16 -53 -32 -45 -16 -50 28
-9 127 119 344 313 363 327 26 18 24 32 -17 115 -43 85 -42 83 -53 71 -6 -5
-5 -30 1 -62 16 -80 -5 -122 -107 -221 -47 -45 -91 -81 -99 -81 -12 0 -139
134 -354 373 -57 64 -63 90 -32 130 21 27 25 37 13 37 -5 0 -48 -37 -98 -81z"/>
<path d="M7690 9659 c-46 -14 -96 -53 -115 -89 -28 -53 -19 -117 35 -258 53
-139 59 -176 35 -222 -22 -42 -53 -60 -105 -60 -67 0 -104 29 -142 109 -18 38
-20 57 -15 124 5 55 3 77 -4 75 -18 -6 -111 -186 -104 -199 5 -8 10 -8 18 0
20 20 34 12 76 -44 106 -141 248 -172 351 -78 77 69 76 148 -2 332 -29 69 -41
111 -42 149 -1 49 2 56 33 84 28 25 39 29 70 24 48 -7 80 -34 109 -87 20 -37
23 -54 19 -104 -3 -33 -8 -70 -12 -82 -5 -16 -3 -23 6 -23 13 1 109 156 117
188 3 11 -4 12 -26 7 -27 -6 -33 -1 -74 52 -66 88 -150 125 -228 102z"/>
<path d="M13413 9646 c-23 -8 -59 -24 -80 -37 -52 -32 -276 -189 -288 -203 -6
-6 -59 -36 -118 -66 -59 -30 -107 -59 -107 -63 0 -5 19 -5 43 -2 37 6 45 3 68
-22 35 -37 204 -356 219 -412 22 -85 -17 -153 -114 -201 -86 -43 -136 -37
-194 20 -46 47 -242 404 -242 443 0 16 10 33 26 46 14 11 24 25 22 30 -1 6
-63 -22 -136 -61 -126 -68 -161 -101 -79 -76 31 9 40 9 54 -5 10 -8 61 -96
113 -193 109 -205 166 -274 240 -294 112 -31 287 55 340 166 18 35 21 58 18
104 -4 62 -6 65 -151 342 -37 70 -67 134 -67 142 0 25 50 76 96 96 55 25 55
25 87 -7 44 -47 327 -457 327 -475 0 -9 -12 -31 -26 -48 -15 -17 -24 -33 -21
-36 11 -11 348 237 377 277 58 81 63 148 15 220 -42 64 -107 85 -198 66 l-38
-8 21 38 c30 56 26 111 -11 162 -48 67 -108 84 -196 57z m72 -86 c58 -36 80
-112 50 -170 -17 -33 -130 -124 -144 -116 -5 4 -41 51 -80 105 -45 63 -69 105
-65 115 3 9 34 32 68 51 71 41 122 45 171 15z m201 -249 c37 -23 73 -78 80
-123 7 -46 -38 -113 -110 -162 -56 -39 -57 -40 -75 -20 -23 23 -161 216 -161
224 0 11 105 74 144 86 58 18 86 17 122 -5z"/>
<path d="M8161 9294 c-30 -8 -69 -23 -86 -34 -50 -31 -111 -102 -146 -172 -28
-54 -33 -76 -37 -154 -4 -83 -2 -97 23 -153 33 -74 102 -142 183 -179 48 -23
70 -27 142 -27 75 1 92 5 145 32 169 87 259 306 195 477 -37 99 -127 177 -239
210 -66 19 -109 19 -180 0z m257 -76 c51 -34 92 -114 92 -177 -1 -93 -73 -250
-153 -333 -106 -110 -260 -105 -342 10 -27 40 -30 51 -30 125 0 77 3 87 47
177 52 106 116 181 181 211 60 28 151 22 205 -13z"/>
<path d="M8720 9066 c0 -2 16 -13 35 -25 24 -14 35 -28 35 -43 0 -26 -159
-498 -185 -547 -15 -29 -20 -32 -55 -29 -74 6 -41 -16 87 -59 138 -46 182 -52
121 -14 -48 29 -48 44 -1 189 28 86 41 112 54 112 10 0 21 -5 26 -12 4 -7 40
-97 78 -202 l71 -189 78 -28 c43 -16 82 -27 86 -24 5 3 -6 20 -24 38 -27 25
-47 67 -95 199 -34 92 -61 170 -61 173 0 3 28 5 63 5 103 0 156 41 178 138 13
56 -5 104 -55 150 -57 53 -79 63 -253 122 -134 45 -183 58 -183 46z m308 -140
c48 -25 72 -63 72 -113 0 -77 -49 -141 -117 -150 -32 -4 -158 19 -170 31 -7 6
87 260 98 267 13 7 66 -8 117 -35z"/>
<path d="M12181 8965 c-78 -24 -321 -129 -321 -138 0 -5 18 -6 39 -2 47 8 67
-9 99 -87 12 -29 57 -141 102 -249 44 -108 80 -209 80 -223 0 -19 -8 -32 -30
-44 -31 -18 -39 -32 -17 -32 20 -1 267 104 267 113 0 5 -18 6 -41 2 -53 -9
-68 5 -112 108 -57 133 -58 129 10 157 159 65 229 155 204 265 -27 119 -142
173 -280 130z m108 -72 c68 -50 88 -157 41 -220 -21 -30 -114 -83 -143 -83
-16 0 -121 249 -115 276 4 24 100 55 152 50 22 -3 51 -13 65 -23z"/>
<path d="M31918 14027 c-153 -320 -280 -590 -284 -599 -6 -17 9 -18 232 -18
l239 0 430 591 c237 325 432 594 433 600 2 5 -147 9 -385 9 l-388 -1 -277
-582z m397 392 c4 -6 -2 -19 -14 -30 -11 -11 -23 -32 -26 -47 -3 -15 -30 -79
-61 -142 -31 -63 -81 -167 -111 -230 -30 -63 -77 -159 -104 -212 -27 -54 -49
-102 -49 -108 0 -25 -92 -91 -107 -77 -4 4 1 20 10 35 18 28 78 149 162 327
26 55 83 173 126 263 44 90 79 166 79 170 0 4 10 20 22 35 22 27 61 36 73 16z"/>
<path d="M40851 12900 c-361 -29 -723 -140 -1001 -308 -478 -290 -812 -809
-945 -1467 -50 -248 -59 -357 -60 -715 0 -359 10 -485 60 -731 89 -439 270
-820 524 -1104 308 -344 733 -562 1251 -642 163 -25 595 -25 765 0 247 37 448
95 642 187 657 312 1062 937 1179 1821 21 162 29 580 15 764 -40 504 -164 917
-381 1266 -310 500 -821 820 -1452 908 -170 24 -438 33 -597 21z m454 -561
c488 -61 871 -339 1094 -794 132 -268 196 -530 222 -910 27 -391 -17 -818
-117 -1124 -19 -58 -63 -164 -98 -236 -214 -437 -564 -703 -1041 -793 -127
-23 -473 -23 -602 1 -390 73 -688 261 -916 580 -66 92 -152 259 -200 387 -145
390 -187 969 -107 1480 72 454 228 781 496 1040 192 185 401 294 674 350 167
35 411 43 595 19z m-1545 -23 c0 -2 -7 -9 -15 -16 -12 -10 -15 -10 -15 4 0 9
7 16 15 16 8 0 15 -2 15 -4z m-112 -105 c-29 -31 -59 -59 -65 -64 -7 -4 -13
-12 -13 -16 0 -5 -18 -28 -40 -52 -22 -24 -43 -52 -46 -61 -3 -10 -10 -18 -15
-18 -5 0 -9 -6 -9 -14 0 -8 -3 -16 -8 -18 -4 -1 -23 -28 -42 -58 -19 -30 -37
-57 -41 -60 -4 -3 -11 -20 -16 -38 -4 -17 -12 -32 -16 -32 -11 1 -89 -159 -82
-170 3 -4 -5 -20 -16 -34 -12 -15 -19 -30 -15 -33 3 -4 -1 -15 -11 -25 -9 -10
-13 -21 -10 -25 4 -3 3 -11 -2 -17 -7 -10 -49 -128 -55 -159 -2 -7 -6 -19 -9
-27 -4 -8 -9 -26 -11 -40 -10 -49 -15 -70 -20 -79 -3 -4 -8 -26 -11 -47 -4
-22 -8 -49 -10 -60 -1 -12 -8 -31 -14 -43 -8 -14 -8 -21 -1 -21 6 0 4 -12 -5
-30 -9 -17 -11 -30 -5 -30 6 0 4 -15 -5 -37 -9 -21 -12 -39 -7 -41 5 -1 3 -22
-5 -45 -8 -23 -10 -43 -5 -45 5 -1 2 -27 -6 -59 -9 -37 -10 -58 -3 -62 7 -4 7
-21 0 -51 -21 -91 -13 -417 15 -665 3 -27 8 -68 10 -90 2 -22 8 -48 11 -57 5
-14 2 -18 -13 -18 -16 0 -21 9 -27 53 -4 28 -9 61 -11 72 -2 11 -4 32 -5 48
-1 15 -5 27 -8 27 -3 0 -6 19 -5 43 0 23 -2 46 -5 52 -2 5 -6 27 -7 50 -34
499 -5 863 97 1210 11 39 24 84 28 100 36 137 243 533 304 584 10 7 17 17 17
22 0 10 188 199 198 199 4 0 12 8 18 18 6 10 21 18 33 18 18 0 13 -9 -31 -55z
m2977 -781 c3 -5 1 -10 -4 -10 -6 0 -11 5 -11 10 0 6 2 10 4 10 3 0 8 -4 11
-10z m40 -70 c-3 -5 -10 -10 -16 -10 -5 0 -9 5 -9 10 0 6 7 10 16 10 8 0 12
-4 9 -10z m10 -30 c-3 -5 -10 -10 -16 -10 -5 0 -9 5 -9 10 0 6 7 10 16 10 8 0
12 -4 9 -10z m8 -27 c-7 -2 -19 -2 -25 0 -7 3 -2 5 12 5 14 0 19 -2 13 -5z m4
-21 c8 -5 9 -12 2 -22 -8 -13 -10 -13 -19 0 -18 27 -9 39 17 22z m15 -64 c-3
-14 -2 -19 6 -14 7 4 12 2 12 -3 0 -6 -8 -11 -17 -12 -14 0 -13 -3 5 -11 12
-6 22 -18 21 -27 -4 -23 12 -101 19 -101 4 0 7 -15 6 -32 0 -18 4 -44 9 -58 5
-14 10 -41 12 -60 2 -19 6 -55 9 -80 14 -115 17 -202 18 -425 1 -217 -2 -312
-16 -430 -3 -22 -7 -62 -11 -90 -13 -122 -66 -346 -96 -412 -10 -23 -19 -50
-19 -60 0 -10 -12 -40 -25 -68 -14 -27 -25 -58 -25 -67 0 -9 -6 -23 -12 -30
-18 -20 -79 -140 -78 -156 0 -7 -4 -10 -10 -7 -5 3 -10 1 -10 -5 0 -6 -22 -43
-50 -82 -27 -39 -50 -67 -50 -62 0 5 -8 -5 -17 -23 -23 -40 -144 -174 -153
-168 -4 2 -24 -18 -44 -45 -33 -43 -40 -48 -52 -36 -18 19 -18 26 1 26 8 0 15
6 15 13 0 7 14 23 30 36 17 12 28 26 26 30 -3 5 11 25 32 44 62 61 92 96 92
107 0 5 5 10 10 10 6 0 10 7 10 15 0 9 7 18 15 21 8 4 15 11 15 16 0 6 17 39
39 72 45 72 114 207 137 268 90 242 111 321 149 537 23 130 33 203 41 306 5
72 5 552 0 601 -2 23 -7 70 -11 105 -4 35 -8 76 -10 90 -1 14 -5 31 -9 37 -4
7 -5 15 -2 20 4 7 -25 168 -39 212 -5 15 -2 20 13 20 16 0 19 -5 14 -22z
m-3634 -1490 c-1 -18 4 -34 10 -36 20 -6 13 -22 -8 -22 -11 0 -20 6 -20 14 0
7 -3 28 -6 45 -5 24 -3 31 9 31 11 0 15 -9 15 -32z m22 -78 c0 -5 -7 -10 -15
-10 -8 0 -15 5 -15 10 0 6 7 10 15 10 8 0 15 -4 15 -10z m11 -39 c5 -41 4 -51
-5 -48 -6 2 -11 11 -11 20 0 8 -4 19 -8 23 -4 4 -7 11 -7 15 0 10 30 0 31 -10z
m19 -83 c0 -13 -23 -5 -28 10 -2 7 2 10 12 6 9 -3 16 -11 16 -16z m20 -69 c0
-14 -17 -10 -23 5 -4 10 -1 13 9 9 7 -3 14 -9 14 -14z m5 -29 c3 -5 1 -10 -4
-10 -6 0 -11 5 -11 10 0 6 2 10 4 10 3 0 8 -4 11 -10z m10 -30 c3 -5 1 -10 -4
-10 -6 0 -11 5 -11 10 0 6 2 10 4 10 3 0 8 -4 11 -10z m10 -30 c3 -5 1 -10 -4
-10 -6 0 -11 5 -11 10 0 6 2 10 4 10 3 0 8 -4 11 -10z m2950 -720 c3 -5 1 -19
-5 -30 -9 -16 -13 -18 -24 -8 -8 7 -10 15 -5 16 5 2 9 10 9 18 0 16 16 19 25
4z m-45 -60 c0 -5 -7 -7 -15 -4 -8 4 -12 10 -9 15 6 11 24 2 24 -11z"/>
<path d="M35915 12879 c-372 -46 -678 -152 -915 -318 -77 -54 -222 -175 -266
-222 -158 -171 -271 -403 -304 -630 -18 -120 -8 -396 19 -509 86 -374 308
-639 687 -820 246 -118 483 -176 1210 -295 628 -102 911 -235 1019 -478 32
-73 55 -205 55 -316 -1 -381 -274 -660 -751 -767 -124 -28 -355 -54 -478 -54
-574 1 -1248 233 -1695 584 -33 25 -70 46 -83 46 l-23 0 0 -399 c0 -310 3
-400 13 -404 6 -3 74 -30 151 -61 395 -160 785 -258 1183 -297 161 -16 658
-16 778 -1 422 54 735 173 1030 392 172 128 299 279 392 465 98 195 134 334
140 542 16 474 -130 788 -473 1016 -277 184 -550 267 -1329 402 -582 101 -797
165 -961 287 -73 55 -121 112 -162 194 -45 89 -62 165 -69 299 -6 138 6 205
61 320 106 225 375 395 731 461 123 23 532 27 685 6 469 -64 959 -253 1237
-478 23 -19 53 -34 67 -34 l26 0 0 374 0 373 -87 36 c-347 144 -790 248 -1218
287 -130 12 -570 11 -670 -1z m-845 -489 c0 -4 -9 -6 -21 -3 -15 4 -17 8 -8
14 14 8 29 3 29 -11z m-45 -40 c-6 -9 -9 -9 -15 0 -6 9 -13 4 -23 -16 -20 -38
-67 -82 -67 -63 -1 13 -30 -20 -55 -62 -5 -9 -31 -42 -57 -74 -46 -58 -60 -82
-94 -160 -9 -22 -22 -47 -28 -55 -18 -22 -59 -196 -51 -211 5 -8 4 -10 -4 -5
-8 5 -12 -4 -11 -31 0 -103 -8 -272 -14 -282 -4 -6 0 -14 9 -17 10 -4 14 -14
10 -25 -3 -11 -8 -29 -11 -41 -5 -16 -3 -20 9 -15 12 4 14 2 10 -11 -4 -9 -11
-20 -17 -24 -6 -4 -4 -9 7 -14 9 -3 17 -10 17 -16 0 -5 -4 -6 -10 -3 -5 3 -10
1 -10 -5 0 -6 7 -13 15 -16 8 -4 15 -10 15 -16 0 -5 -4 -6 -10 -3 -5 3 -10 2
-10 -4 0 -5 8 -15 18 -20 16 -10 16 -10 0 -11 -25 0 -65 103 -74 190 -1 14 -3
25 -4 25 -9 0 -13 67 -13 205 0 128 3 178 17 225 53 182 116 296 217 397 33
32 59 63 59 69 0 6 7 9 15 5 8 -3 15 -1 15 5 0 14 41 48 58 49 6 0 12 7 12 16
0 14 3 14 15 4 13 -10 15 -9 15 8 0 11 8 22 18 25 22 5 36 -8 27 -23z m-385
-1220 c0 -5 -2 -10 -4 -10 -3 0 -8 5 -11 10 -3 6 -1 10 4 10 6 0 11 -4 11 -10z
m2930 -1580 c0 -5 -7 -10 -16 -10 -8 0 -12 5 -9 10 3 6 10 10 16 10 5 0 9 -4
9 -10z m4 -36 c9 -23 8 -24 -16 -24 -17 0 -19 3 -9 9 7 5 10 14 7 20 -4 6 -3
11 2 11 6 0 13 -7 16 -16z m11 -61 c11 -41 14 -265 4 -290 -5 -15 -5 -23 2
-23 6 0 6 -6 1 -17 -6 -10 -13 -38 -18 -63 -9 -54 -8 -48 -22 -83 -7 -16 -12
-34 -12 -41 0 -8 -6 -19 -14 -25 -8 -6 -20 -26 -27 -44 -14 -34 -29 -55 -66
-94 -13 -13 -23 -27 -23 -31 0 -16 -116 -117 -135 -117 -11 0 -20 -6 -21 -12
-1 -7 -2 -18 -3 -25 -1 -9 -4 -9 -13 0 -18 18 -30 14 -23 -8 7 -21 -10 -29
-18 -7 -4 13 75 97 93 97 5 0 10 5 10 11 0 9 47 74 78 107 7 8 19 28 28 45 8
18 28 57 44 87 15 30 36 80 45 110 9 30 21 64 25 75 13 33 30 155 32 228 1 40
6 67 12 67 6 0 5 4 -2 9 -10 6 -12 41 -3 69 4 12 20 -4 26 -25z m-3052 -618
c16 -24 29 -58 29 -74 1 -19 5 -28 12 -24 6 4 6 0 -1 -8 -8 -10 -13 -61 -15
-139 -2 -82 -7 -125 -14 -127 -9 -3 -12 35 -13 133 -1 76 -4 141 -7 146 -3 5
-7 19 -9 31 -1 12 -7 41 -13 65 -5 23 -7 42 -3 42 3 0 19 -20 34 -45z m2650
-270 c4 -8 2 -17 -3 -20 -6 -4 -10 3 -10 14 0 25 6 27 13 6z m-28 -26 c11 -17
-1 -21 -15 -4 -8 9 -8 15 -2 15 6 0 14 -5 17 -11z"/>
<path d="M72720 12875 c-977 -122 -1641 -694 -1890 -1628 -74 -278 -106 -592
-97 -951 10 -409 64 -709 183 -1022 196 -517 529 -890 995 -1113 531 -255
1251 -310 1904 -145 226 57 420 128 715 262 l175 79 3 372 2 371 -25 0 c-17 0
-60 -28 -129 -84 -288 -233 -588 -388 -916 -471 -495 -125 -999 -85 -1379 110
-416 214 -715 650 -821 1199 -36 186 -44 296 -44 556 1 421 51 696 183 1011
134 320 404 615 698 763 233 116 452 161 783 160 442 -1 786 -96 1168 -322
112 -67 320 -212 390 -273 20 -18 44 -29 62 -29 l30 0 0 376 0 375 -117 56
c-370 174 -702 280 -1049 334 -182 28 -646 36 -824 14z m-1325 -835 c3 -5 1
-10 -4 -10 -6 0 -11 5 -11 10 0 6 2 10 4 10 3 0 8 -4 11 -10z m-27 -45 c0 -30
-13 -41 -22 -19 -4 11 9 40 20 44 1 0 2 -11 2 -25z m-28 -25 c0 -5 -4 -10 -10
-10 -5 0 -10 5 -10 10 0 6 5 10 10 10 6 0 10 -4 10 -10z m-2 -32 c-3 -7 -11
-13 -19 -13 -8 0 -13 -8 -11 -18 2 -9 -2 -17 -8 -17 -5 0 -10 -7 -10 -15 0 -8
-4 -15 -10 -15 -5 0 -10 -7 -10 -15 0 -8 -7 -15 -16 -15 -8 0 -13 -4 -9 -9 5
-9 -13 -61 -26 -71 -3 -3 -23 -43 -44 -90 -21 -47 -42 -86 -47 -88 -4 -2 -8
-10 -8 -18 0 -9 -9 -39 -21 -67 -12 -29 -30 -73 -40 -99 -11 -26 -21 -60 -23
-75 -2 -16 -8 -39 -14 -53 -12 -29 -26 -82 -24 -92 1 -4 -3 -19 -9 -34 -5 -15
-12 -41 -14 -58 -3 -17 -8 -42 -10 -56 -9 -43 -22 -118 -29 -180 -16 -120 -19
-204 -19 -445 -1 -241 2 -303 17 -435 2 -19 7 -60 10 -90 6 -52 10 -82 22
-140 3 -14 6 -32 8 -40 12 -70 31 -150 35 -150 3 0 7 -18 9 -40 1 -22 -2 -40
-7 -40 -8 0 -33 51 -36 75 0 6 -11 44 -24 85 -13 41 -25 86 -28 100 -8 40 -11
55 -13 55 -1 0 -3 7 -5 15 -65 318 -76 710 -29 1125 12 112 87 412 123 490 5
11 31 70 57 130 26 61 63 136 81 167 18 31 33 61 33 67 0 6 4 11 8 11 5 0 27
28 49 63 23 34 50 72 62 85 23 24 55 30 49 10z m-308 -2497 c0 -5 3 -17 6 -25
5 -12 2 -15 -10 -10 -17 7 -22 44 -6 44 6 0 10 -4 10 -9z m30 -71 c0 -5 -7
-10 -15 -10 -8 0 -15 5 -15 10 0 6 7 10 15 10 8 0 15 -4 15 -10z m10 -40 c0
-5 -4 -10 -9 -10 -6 0 -13 5 -16 10 -3 6 1 10 9 10 9 0 16 -4 16 -10z m20 -51
c0 -4 -7 -6 -15 -3 -8 4 -15 10 -15 15 0 4 7 6 15 3 8 -4 15 -10 15 -15z"/>
<path d="M21127 12803 c-4 -3 -7 -132 -7 -285 l0 -278 860 0 860 0 0 -2115 0
-2115 320 0 320 0 0 2115 0 2115 855 0 855 0 0 285 0 285 -2028 0 c-1116 0
-2032 -3 -2035 -7z m206 -176 c4 -7 5 -21 2 -32 -2 -11 -5 -46 -5 -77 0 -57 0
-58 -29 -58 l-30 0 -3 91 c-2 50 -1 93 2 95 7 8 54 -7 63 -19z m1684 -437 c-3
-22 -1 -40 4 -40 10 0 12 -3037 2 -3577 -5 -285 -9 -353 -20 -353 -11 0 -13
327 -13 1944 0 1359 3 1947 11 1951 6 5 4 11 -7 19 -11 9 -13 15 -6 20 8 4 8
15 2 31 -7 18 -6 25 3 25 8 0 7 4 -3 10 -12 8 -10 10 9 10 22 0 23 -3 18 -40z"/>
<path d="M25840 10410 l0 -2400 315 0 315 0 2 953 3 952 447 3 447 2 803 -955
803 -955 413 0 414 0 -40 48 c-22 26 -427 497 -901 1047 -794 923 -859 1001
-838 1009 220 92 402 210 553 360 167 167 261 318 329 526 46 145 65 259 72
440 8 239 -26 445 -102 615 -68 151 -230 341 -385 450 -94 66 -268 154 -375
189 -304 99 -534 116 -1547 116 l-728 0 0 -2400z m178 2234 l22 -6 0 -1968 c0
-1740 -2 -1969 -15 -1974 -13 -5 -15 -41 -15 -241 0 -150 -4 -235 -10 -235 -7
0 -10 511 -10 1513 0 955 -4 1517 -10 1523 -7 7 -16 1272 -10 1387 0 8 17 9
48 1z m1582 -408 c226 -37 390 -114 516 -240 81 -82 113 -135 157 -261 31 -90
32 -91 32 -295 0 -227 -11 -302 -65 -436 -72 -180 -213 -335 -387 -425 -96
-49 -175 -74 -318 -101 -99 -19 -158 -21 -587 -25 l-478 -5 0 907 0 907 513
-5 c421 -3 531 -7 617 -21z m840 -426 c13 -8 13 -10 -2 -10 -9 0 -20 5 -23 10
-8 13 5 13 25 0z m17 -36 c-3 -3 -12 -4 -19 -1 -8 3 -5 6 6 6 11 1 17 -2 13
-5z m13 -45 c0 -4 -7 -6 -15 -3 -8 4 -15 10 -15 15 0 4 7 6 15 3 8 -4 15 -10
15 -15z m-6 -25 c22 -8 20 -34 -2 -34 -11 0 -18 7 -18 20 0 11 1 20 2 20 1 0
9 -3 18 -6z m10 -50 c23 -9 21 -54 -2 -54 -14 0 -19 8 -19 30 0 17 1 30 3 30
1 0 9 -3 18 -6z m14 -77 c12 -14 18 -273 7 -300 -4 -10 -5 -31 -1 -47 3 -19 1
-30 -5 -30 -7 0 -9 -11 -6 -29 4 -16 2 -31 -4 -33 -5 -2 -11 -24 -12 -50 -1
-25 -4 -44 -6 -42 -3 2 -14 -26 -26 -63 -35 -110 -147 -309 -167 -297 -4 3 -8
-1 -8 -8 0 -18 -80 -109 -90 -103 -4 3 -15 -7 -25 -21 -9 -14 -22 -23 -29 -21
-8 3 -19 -6 -26 -21 -7 -16 -15 -22 -17 -14 -8 20 -23 14 -24 -10 0 -13 -3
-17 -6 -10 -8 20 -23 14 -24 -10 0 -13 -3 -17 -6 -10 -2 6 -11 12 -19 12 -8 0
-14 5 -14 10 0 6 7 10 15 10 8 0 15 5 15 10 0 6 7 10 15 10 8 0 15 7 15 15 0
8 5 15 11 15 15 0 122 113 174 185 37 52 52 76 94 155 14 26 38 84 51 120 7
19 16 44 21 55 12 28 38 149 41 187 1 18 4 38 7 43 6 10 7 23 12 198 4 106 11
125 37 94z m-543 -1137 c3 -5 2 -10 -4 -10 -5 0 -13 5 -16 10 -3 6 -2 10 4 10
5 0 13 -4 16 -10z"/>
<path d="M30430 10410 l0 -2400 1580 0 1580 0 0 280 0 280 -1262 2 -1263 3 -3
893 -2 892 1265 0 1265 0 0 280 0 280 -1262 2 -1263 3 -3 658 -2 657 1265 0
1265 0 -2 283 -3 282 -1577 3 -1578 2 0 -2400z m166 2225 c4 -8 12 -15 20 -15
12 0 14 -258 14 -1729 0 -1528 -2 -1730 -15 -1735 -13 -5 -15 -66 -15 -471 0
-407 -2 -465 -15 -465 -13 0 -15 239 -16 2088 0 1148 -4 2141 -8 2207 -4 66
-6 123 -4 128 7 13 33 8 39 -8z"/>
<path d="M44310 10410 l0 -2400 315 0 315 0 2 953 3 952 447 3 446 2 804 -955
803 -955 414 0 c394 0 413 1 399 18 -9 9 -415 481 -902 1047 -823 957 -885
1031 -864 1039 215 87 403 210 553 360 198 199 302 386 364 656 73 314 45 690
-69 928 -166 348 -495 585 -950 687 -240 53 -479 65 -1357 65 l-723 0 0 -2400z
m166 2225 c4 -8 12 -15 20 -15 8 0 14 -7 14 -15 0 -8 -7 -15 -15 -15 -13 0
-15 -249 -15 -2184 0 -1563 -3 -2187 -11 -2192 -6 -3 -15 -2 -21 4 -13 13 -27
4401 -14 4420 12 17 35 15 42 -3z m1459 -386 c462 -40 721 -213 817 -546 20
-69 23 -100 23 -273 0 -170 -4 -208 -24 -295 -63 -267 -252 -488 -504 -590
-187 -76 -363 -95 -892 -95 l-415 0 0 905 0 905 438 0 c240 0 491 -5 557 -11z
m935 -379 c0 -5 -4 -10 -10 -10 -5 0 -10 5 -10 10 0 6 5 10 10 10 6 0 10 -4
10 -10z m20 -34 c0 -3 -4 -8 -10 -11 -5 -3 -10 -1 -10 4 0 6 5 11 10 11 6 0
10 -2 10 -4z m18 -57 c8 -12 9 -18 3 -15 -5 4 -12 2 -16 -4 -3 -5 1 -10 9 -10
9 0 16 -3 17 -7 3 -27 9 -55 22 -103 12 -42 14 -97 12 -230 -2 -96 -6 -191 -9
-210 -3 -19 -6 -42 -7 -50 0 -8 -3 -22 -6 -30 -3 -8 -7 -26 -9 -40 -5 -43 -37
-140 -46 -140 -4 0 -8 -11 -8 -25 0 -14 -4 -25 -9 -25 -5 0 -17 -20 -28 -45
-10 -25 -24 -45 -31 -45 -7 0 -11 -4 -8 -9 3 -5 -6 -21 -19 -35 -14 -15 -25
-31 -25 -35 0 -5 -7 -12 -16 -15 -8 -3 -12 -10 -9 -16 3 -6 -1 -13 -10 -16 -9
-4 -37 -29 -62 -56 -49 -52 -71 -57 -35 -8 12 16 22 32 22 36 0 4 8 14 18 23
9 9 24 30 32 46 8 17 20 37 26 45 24 29 102 196 122 260 19 62 46 191 57 275
5 44 8 348 3 380 -2 11 -7 24 -13 28 -7 6 -6 10 2 13 9 4 8 14 -2 38 -20 46
-2 65 23 25z m-323 -1209 c3 -5 1 -10 -4 -10 -6 0 -11 5 -11 10 0 6 2 10 4 10
3 0 8 -4 11 -10z"/>
<path d="M51217 12803 c-4 -3 -7 -1083 -7 -2400 l0 -2393 320 0 320 0 0 894 0
894 498 5 c447 3 510 6 622 25 308 52 505 127 735 280 108 71 284 238 353 334
196 270 291 569 292 920 0 324 -64 567 -203 776 -203 302 -493 494 -903 596
-147 37 -293 56 -518 66 -228 11 -1499 14 -1509 3z m167 -175 c10 -38 7 -4406
-3 -4412 -5 -4 -16 -3 -24 0 -14 5 -16 242 -19 2207 -2 1211 -1 2208 1 2215 6
21 38 13 45 -10z m1361 -378 c223 -21 364 -58 515 -136 210 -108 334 -265 397
-501 22 -85 26 -119 27 -263 1 -185 -14 -280 -65 -408 -77 -196 -242 -372
-433 -465 -220 -107 -439 -137 -997 -137 l-339 0 0 960 0 960 393 0 c215 0
442 -5 502 -10z m1045 -500 c0 -5 -4 -10 -10 -10 -5 0 -10 5 -10 10 0 6 5 10
10 10 6 0 10 -4 10 -10z m18 -41 c8 -12 9 -18 3 -14 -6 3 -11 2 -11 -4 0 -5 5
-11 10 -13 10 -3 18 -27 25 -75 2 -12 7 -27 11 -34 4 -7 8 -29 9 -48 5 -86 5
-339 0 -376 -3 -22 -5 -50 -5 -62 0 -12 -5 -25 -10 -28 -6 -3 -10 -24 -10 -45
0 -21 -4 -41 -9 -44 -5 -3 -12 -18 -16 -33 -9 -39 -95 -210 -117 -233 -10 -10
-18 -24 -18 -30 0 -5 -4 -10 -9 -10 -5 0 -13 -9 -16 -20 -4 -11 -11 -18 -16
-14 -6 3 -15 -8 -22 -25 -6 -17 -16 -30 -22 -28 -6 1 -27 -16 -47 -38 -21 -22
-38 -34 -38 -27 0 7 7 15 15 18 8 4 15 12 15 20 0 7 9 18 20 24 11 6 17 16 14
25 -4 10 0 15 11 15 9 0 14 4 10 9 -3 5 -1 12 5 16 6 4 8 11 5 16 -4 5 1 12
10 16 26 9 119 215 150 328 15 55 33 156 40 225 13 132 13 349 0 370 -4 7 -2
16 6 21 12 7 12 9 0 9 -8 0 -11 6 -7 16 4 10 -1 26 -11 37 -13 14 -14 21 -6
24 7 2 9 11 6 19 -8 22 11 17 25 -7z"/>
<path d="M55127 12803 c-11 -10 -8 -2868 3 -3078 12 -227 24 -330 56 -492 107
-542 394 -930 845 -1142 259 -122 561 -181 924 -181 590 0 1008 140 1333 445
326 308 479 723 512 1395 7 138 10 726 8 1635 l-3 1420 -317 3 -318 2 0 -1522
c0 -932 -4 -1575 -10 -1658 -30 -396 -124 -655 -309 -852 -190 -202 -419 -297
-766 -316 -324 -18 -621 39 -821 159 -127 76 -279 248 -357 404 -41 83 -94
253 -111 360 -33 203 -36 370 -36 1898 l0 1527 -313 0 c-173 0 -317 -3 -320
-7z m173 -173 c8 -14 11 -452 11 -1473 0 -798 2 -1486 4 -1527 3 -41 5 -82 6
-90 1 -17 18 -155 25 -202 2 -18 7 -51 10 -72 3 -22 10 -48 15 -58 5 -10 7
-23 3 -29 -4 -6 0 -15 7 -20 20 -12 -4 -34 -28 -25 -13 5 -14 9 -4 15 10 6 9
11 -3 23 -8 9 -13 18 -10 20 2 3 -1 18 -7 34 -6 16 -13 43 -14 61 -1 17 -5 35
-8 40 -4 5 -8 23 -11 39 -22 134 -23 146 -31 237 -4 42 -9 96 -11 120 -7 70
-17 2895 -11 2911 9 23 44 20 57 -4z m3040 0 c11 -21 7 -2956 -4 -3070 -17
-167 -26 -232 -40 -279 -63 -208 -84 -266 -128 -352 -28 -55 -55 -99 -59 -99
-5 0 -9 -7 -9 -15 0 -8 -4 -15 -10 -15 -5 0 -10 -7 -10 -15 0 -8 -4 -15 -9
-15 -5 0 -11 -9 -14 -21 -3 -12 -10 -18 -16 -15 -6 4 -13 -5 -17 -19 -7 -29
-16 -31 -34 -10 -9 11 -8 20 9 44 12 16 21 32 21 35 0 3 13 24 29 48 24 37 48
83 102 203 37 83 91 297 111 445 20 139 21 203 25 1645 2 825 6 1506 8 1513 7
19 33 14 45 -8z m-2946 -3526 c9 -23 8 -24 -16 -23 -13 0 -18 3 -11 5 7 3 9
12 6 20 -3 8 -1 14 5 14 5 0 13 -7 16 -16z m16 -64 c0 -5 -4 -10 -10 -10 -5 0
-10 5 -10 10 0 6 5 10 10 10 6 0 10 -4 10 -10z m10 -40 c0 -5 -4 -10 -10 -10
-5 0 -10 5 -10 10 0 6 5 10 10 10 6 0 10 -4 10 -10z m2570 -308 c0 -4 -20 -28
-45 -52 -25 -24 -45 -40 -45 -36 0 4 11 17 25 27 14 12 22 26 18 34 -3 10 1
15 12 15 9 0 13 5 10 10 -3 6 1 10 9 10 9 0 16 -4 16 -8z"/>
<path d="M60030 10411 l0 -2401 963 0 c1027 0 1146 4 1392 51 335 63 651 225
875 448 179 179 293 390 352 651 20 93 23 130 23 320 0 237 -11 310 -67 470
-133 378 -445 649 -878 764 -51 14 -86 29 -88 37 -1 8 24 29 60 49 226 128
424 340 501 538 86 222 91 539 13 769 -57 167 -168 316 -310 418 -143 101
-388 198 -596 234 -222 39 -341 43 -1302 48 l-938 5 0 -2401z m160 2220 c14
-27 14 -4407 0 -4416 -6 -3 -19 -3 -30 0 -20 6 -20 18 -20 2214 0 1214 3 2211
7 2214 12 13 32 7 43 -12z m1775 -390 c285 -41 470 -143 547 -302 85 -174 74
-498 -23 -690 -49 -99 -153 -195 -276 -257 -199 -99 -317 -112 -1025 -112
l-528 0 0 691 0 691 613 -5 c383 -3 642 -9 692 -16z m738 -331 c6 -14 12 -32
13 -40 1 -8 9 -40 16 -70 10 -37 14 -98 12 -190 -2 -74 -3 -147 -3 -162 -1
-15 -5 -29 -10 -33 -6 -3 -8 -12 -4 -20 3 -9 1 -21 -4 -28 -6 -6 -16 -34 -23
-62 -17 -66 -59 -157 -70 -150 -5 3 -11 -8 -15 -25 -4 -17 -11 -28 -16 -24 -5
3 -9 -4 -9 -16 0 -12 -4 -18 -10 -15 -6 4 -16 -8 -24 -26 -8 -19 -16 -27 -20
-20 -4 6 -12 9 -17 6 -5 -3 -6 1 -3 9 3 9 10 16 15 16 5 0 9 7 9 15 0 8 5 15
10 15 6 0 10 9 10 20 0 11 8 34 18 52 23 41 76 219 93 313 15 86 16 369 0 408
-9 23 -8 29 5 34 12 4 12 8 4 13 -8 5 -9 13 -4 21 6 10 9 10 12 -1 3 -8 10
-26 15 -40z m-543 -1589 c266 -29 460 -107 608 -245 87 -82 127 -144 161 -251
55 -170 66 -424 26 -610 -45 -212 -203 -405 -420 -514 -238 -118 -549 -151
-1442 -151 l-433 0 0 896 0 896 698 -5 c402 -3 741 -10 802 -16z m920 -431 c0
-5 -4 -10 -10 -10 -5 0 -10 5 -10 10 0 6 5 10 10 10 6 0 10 -4 10 -10z m20
-45 c0 -14 5 -25 10 -25 6 0 10 -6 8 -12 -2 -12 8 -67 30 -163 9 -36 7 -318
-2 -394 -10 -85 -87 -301 -107 -301 -4 0 -10 -11 -13 -25 -4 -14 -11 -23 -16
-20 -6 3 -10 -3 -10 -15 0 -12 -4 -18 -10 -15 -5 3 -10 -3 -10 -15 0 -12 -4
-18 -10 -15 -6 4 -16 -7 -23 -23 -11 -26 -15 -28 -30 -17 -21 15 -22 25 -1 25
8 0 12 5 8 11 -3 6 -1 15 5 19 7 4 13 13 14 21 2 8 13 32 25 52 12 21 22 40
22 43 0 2 8 23 18 47 61 138 84 286 83 512 -2 232 -3 258 -16 268 -7 5 -6 10
2 15 8 5 9 13 3 22 -14 21 -12 30 5 30 9 0 15 -9 15 -25z m-200 -1065 c0 -5
-4 -10 -10 -10 -5 0 -10 5 -10 10 0 6 5 10 10 10 6 0 10 -4 10 -10z"/>
<path d="M64550 10410 l0 -2400 1515 0 1515 0 0 280 0 280 -1195 0 -1195 0 0
2120 0 2120 -320 0 -320 0 0 -2400z m170 2221 c7 -14 9 -714 8 -2218 l-3
-2198 -30 0 -30 0 -3 2205 c-1 1213 0 2211 3 2218 7 19 43 14 55 -7z"/>
<path d="M68020 12565 l0 -245 315 0 315 0 0 -1910 0 -1910 -315 0 -315 0 0
-245 0 -245 945 0 945 0 0 245 0 245 -310 0 -310 0 0 1910 0 1910 310 0 310 0
0 245 0 245 -945 0 -945 0 0 -245z m170 66 c16 -31 13 -111 -5 -111 -8 0 -16
-8 -16 -17 -1 -17 -2 -17 -6 0 -2 9 -8 17 -12 17 -14 0 -22 102 -10 117 16 19
37 16 49 -6z m593 -308 c-4 -11 -3 -14 5 -9 7 4 12 1 12 -8 0 -8 6 -16 13 -18
9 -4 12 -389 14 -1875 3 -1647 1 -1872 -12 -1883 -8 -7 -15 -23 -15 -37 0 -25
-20 -53 -38 -53 -6 0 -12 -6 -15 -12 -6 -18 -15 -7 -21 26 -3 16 1 47 9 70 8
22 15 56 15 74 0 17 5 32 10 32 7 0 10 599 8 1855 -2 1453 0 1855 9 1855 7 0
10 -7 6 -17z m-593 -4003 c6 -12 10 -40 8 -63 -3 -37 -6 -42 -28 -42 -21 0
-25 6 -32 45 -4 25 -5 53 -2 62 7 24 41 23 54 -2z"/>
<path d="M18205 5739 c-4 -6 -5 -12 -2 -15 2 -3 7 2 10 11 7 17 1 20 -8 4z"/>
</g>
</svg>
